<?xml version="1.0" ?><svg xmlns="http://www.w3.org/2000/svg" xmlns:xlink="http://www.w3.org/1999/xlink" version="1.0" viewBox="0 0 48 48" enable-background="new 0 0 48 48" xml:space="preserve"><g id="Layer_1"/><g id="_x32__x5F_Office_x5F_Building"><path d="M44,39H5c-0.552,0-1,0.447-1,1v4c0,0.553,0.448,1,1,1h39c0.553,0,1-0.447,1-1v-4C45,39.447,44.553,39,44,39z M43,43H6v-2   h37V43z M7,36V6c0-1.654,1.346-3,3-3h13c1.654,0,3,1.346,3,3v30c0,0.553-0.447,1-1,1c-0.552,0-1-0.447-1-1V6c0-0.551-0.449-1-1-1   H10C9.449,5,9,5.449,9,6v30c0,0.553-0.448,1-1,1S7,36.553,7,36z M18,36v-7h-3v7c0,0.553-0.448,1-1,1s-1-0.447-1-1v-7   c0-1.103,0.897-2,2-2h3c1.103,0,2,0.897,2,2v7c0,0.553-0.448,1-1,1S18,36.553,18,36z M28,20c0-0.552,0.447-1,1-1h10   c1.654,0,3,1.346,3,3v14c0,0.553-0.447,1-1,1s-1-0.447-1-1V22c0-0.551-0.448-1-1-1H29C28.447,21,28,20.552,28,20z M28,36   c0-0.553,0.447-1,1-1h2c0.553,0,1,0.447,1,1s-0.447,1-1,1h-2C28.447,37,28,36.553,28,36z M38,36c0,0.553-0.447,1-1,1h-2   c-0.553,0-1-0.447-1-1s0.447-1,1-1h2C37.553,35,38,35.447,38,36z M28,32c0-0.553,0.447-1,1-1h2c0.553,0,1,0.447,1,1s-0.447,1-1,1   h-2C28.447,33,28,32.553,28,32z M38,32c0,0.553-0.447,1-1,1h-2c-0.553,0-1-0.447-1-1s0.447-1,1-1h2C37.553,31,38,31.447,38,32z    M28,28c0-0.553,0.447-1,1-1h2c0.553,0,1,0.447,1,1s-0.447,1-1,1h-2C28.447,29,28,28.553,28,28z M38,28c0,0.553-0.447,1-1,1h-2   c-0.553,0-1-0.447-1-1s0.447-1,1-1h2C37.553,27,38,27.447,38,28z M28,24c0-0.552,0.447-1,1-1h2c0.553,0,1,0.448,1,1s-0.447,1-1,1   h-2C28.447,25,28,24.552,28,24z M38,24c0,0.552-0.447,1-1,1h-2c-0.553,0-1-0.448-1-1s0.447-1,1-1h2C37.553,23,38,23.448,38,24z    M11,24c0-0.552,0.448-1,1-1h2c0.552,0,1,0.448,1,1s-0.448,1-1,1h-2C11.448,25,11,24.552,11,24z M21,25h-2c-0.552,0-1-0.448-1-1   s0.448-1,1-1h2c0.552,0,1,0.448,1,1S21.552,25,21,25z M11,20c0-0.552,0.448-1,1-1h2c0.552,0,1,0.448,1,1s-0.448,1-1,1h-2   C11.448,21,11,20.552,11,20z M22,20c0,0.552-0.448,1-1,1h-2c-0.552,0-1-0.448-1-1s0.448-1,1-1h2C21.552,19,22,19.448,22,20z M11,16   c0-0.552,0.448-1,1-1h2c0.552,0,1,0.448,1,1s-0.448,1-1,1h-2C11.448,17,11,16.552,11,16z M22,16c0,0.552-0.448,1-1,1h-2   c-0.552,0-1-0.448-1-1s0.448-1,1-1h2C21.552,15,22,15.448,22,16z M11,12c0-0.552,0.448-1,1-1h2c0.552,0,1,0.448,1,1s-0.448,1-1,1   h-2C11.448,13,11,12.552,11,12z M22,12c0,0.552-0.448,1-1,1h-2c-0.552,0-1-0.448-1-1s0.448-1,1-1h2C21.552,11,22,11.448,22,12z    M11,8c0-0.552,0.448-1,1-1h2c0.552,0,1,0.448,1,1s-0.448,1-1,1h-2C11.448,9,11,8.552,11,8z M22,8c0,0.552-0.448,1-1,1h-2   c-0.552,0-1-0.448-1-1s0.448-1,1-1h2C21.552,7,22,7.448,22,8z"/></g></svg>