<?xml version="1.0" encoding="UTF-8"?>
<!DOCTYPE svg PUBLIC "-//W3C//DTD SVG 1.1//EN" "http://www.w3.org/Graphics/SVG/1.1/DTD/svg11.dtd">
<svg xmlns="http://www.w3.org/2000/svg" version="1.1" width="480px" height="480px" style="shape-rendering:geometricPrecision; text-rendering:geometricPrecision; image-rendering:optimizeQuality; fill-rule:evenodd; clip-rule:evenodd" xmlns:xlink="http://www.w3.org/1999/xlink">
<g><path style="opacity:0.044" fill="#030000" d="M 95.5,-0.5 C 98.8333,-0.5 102.167,-0.5 105.5,-0.5C 105.5,0.166667 105.5,0.833333 105.5,1.5C 102.167,1.5 98.8333,1.5 95.5,1.5C 95.5,0.833333 95.5,0.166667 95.5,-0.5 Z"/></g>
<g><path style="opacity:0.145" fill="#225337" d="M 105.5,-0.5 C 194.167,-0.5 282.833,-0.5 371.5,-0.5C 371.5,0.166667 371.5,0.833333 371.5,1.5C 282.833,1.5 194.167,1.5 105.5,1.5C 105.5,0.833333 105.5,0.166667 105.5,-0.5 Z"/></g>
<g><path style="opacity:0.051" fill="#07060c" d="M 371.5,-0.5 C 374.833,-0.5 378.167,-0.5 381.5,-0.5C 381.5,0.166667 381.5,0.833333 381.5,1.5C 378.167,1.5 374.833,1.5 371.5,1.5C 371.5,0.833333 371.5,0.166667 371.5,-0.5 Z"/></g>
<g><path style="opacity:0.012" fill="#000000" d="M 83.5,1.5 C 83.5,2.16667 83.5,2.83333 83.5,3.5C 82.8333,3.5 82.1667,3.5 81.5,3.5C 81.5,2.16667 82.1667,1.5 83.5,1.5 Z"/></g>
<g><path style="opacity:0.635" fill="#25d44c" d="M 83.5,1.5 C 86.1667,1.5 88.8333,1.5 91.5,1.5C 89.3647,3.36895 86.6981,4.03562 83.5,3.5C 83.5,2.83333 83.5,2.16667 83.5,1.5 Z"/></g>
<g><path style="opacity:0.176" fill="#29f956" d="M 389.5,1.5 C 390.833,1.5 392.167,1.5 393.5,1.5C 393.5,2.16667 393.5,2.83333 393.5,3.5C 391.517,3.84316 390.183,3.17649 389.5,1.5 Z"/></g>
<g><path style="opacity:0.047" fill="#000000" d="M 393.5,1.5 C 394.833,1.5 395.5,2.16667 395.5,3.5C 394.833,3.5 394.167,3.5 393.5,3.5C 393.5,2.83333 393.5,2.16667 393.5,1.5 Z"/></g>
<g><path style="opacity:0.004" fill="#000000" d="M 75.5,3.5 C 75.5,4.83333 74.8333,5.5 73.5,5.5C 73.5,4.16667 74.1667,3.5 75.5,3.5 Z"/></g>
<g><path style="opacity:1" fill="#198430" d="M 91.5,1.5 C 92.8333,1.5 94.1667,1.5 95.5,1.5C 98.8333,1.5 102.167,1.5 105.5,1.5C 194.167,1.5 282.833,1.5 371.5,1.5C 374.833,1.5 378.167,1.5 381.5,1.5C 384.167,1.5 386.833,1.5 389.5,1.5C 390.183,3.17649 391.517,3.84316 393.5,3.5C 394.167,3.5 394.833,3.5 395.5,3.5C 396.167,3.5 396.833,3.5 397.5,3.5C 398.183,5.17649 399.517,5.84316 401.5,5.5C 402.167,5.5 402.833,5.5 403.5,5.5C 404.833,5.5 406.167,5.5 407.5,5.5C 407.5,6.83333 408.167,7.5 409.5,7.5C 415.745,9.62246 421.745,12.2891 427.5,15.5C 427.5,16.8333 428.167,17.5 429.5,17.5C 430.833,18.1667 432.167,18.8333 433.5,19.5C 433.5,20.8333 434.167,21.5 435.5,21.5C 437.5,22.8333 439.5,24.1667 441.5,25.5C 441.5,26.8333 442.167,27.5 443.5,27.5C 443.5,28.8333 444.167,29.5 445.5,29.5C 445.5,30.8333 446.167,31.5 447.5,31.5C 447.5,32.8333 448.167,33.5 449.5,33.5C 449.5,34.8333 450.167,35.5 451.5,35.5C 451.5,36.8333 452.167,37.5 453.5,37.5C 458.956,44.2981 463.623,51.6314 467.5,59.5C 467.5,60.8333 468.167,61.5 469.5,61.5C 469.5,62.1667 469.5,62.8333 469.5,63.5C 469.5,64.8333 470.167,65.5 471.5,65.5C 471.5,66.8333 471.5,68.1667 471.5,69.5C 471.157,71.4832 471.824,72.8166 473.5,73.5C 474.968,75.9158 475.635,78.5825 475.5,81.5C 475.5,82.8333 476.167,83.5 477.5,83.5C 477.5,86.8333 477.5,90.1667 477.5,93.5C 477.157,95.4832 477.824,96.8166 479.5,97.5C 479.5,98.1667 479.5,98.8333 479.5,99.5C 478.167,146.162 477.5,193.162 477.5,240.5C 477.5,287.838 478.167,334.838 479.5,381.5C 479.5,382.167 479.5,382.833 479.5,383.5C 477.824,384.183 477.157,385.517 477.5,387.5C 477.5,388.833 477.5,390.167 477.5,391.5C 475.692,392.918 475.025,394.918 475.5,397.5C 475.5,398.167 475.5,398.833 475.5,399.5C 475.5,400.167 475.5,400.833 475.5,401.5C 473.824,402.183 473.157,403.517 473.5,405.5C 473.5,406.167 473.5,406.833 473.5,407.5C 471.824,408.183 471.157,409.517 471.5,411.5C 468.55,420.067 464.55,428.067 459.5,435.5C 458.167,435.5 457.5,436.167 457.5,437.5C 456.167,439.5 454.833,441.5 453.5,443.5C 452.167,443.5 451.5,444.167 451.5,445.5C 450.167,445.5 449.5,446.167 449.5,447.5C 448.167,447.5 447.5,448.167 447.5,449.5C 446.167,449.5 445.5,450.167 445.5,451.5C 444.167,451.5 443.5,452.167 443.5,453.5C 442.167,453.5 441.5,454.167 441.5,455.5C 439.5,456.833 437.5,458.167 435.5,459.5C 434.167,459.5 433.5,460.167 433.5,461.5C 432.167,462.167 430.833,462.833 429.5,463.5C 428.167,463.5 427.5,464.167 427.5,465.5C 423.074,468.046 418.408,470.046 413.5,471.5C 411.517,471.157 410.183,471.824 409.5,473.5C 408.167,473.5 407.5,474.167 407.5,475.5C 406.167,475.5 404.833,475.5 403.5,475.5C 402.833,475.5 402.167,475.5 401.5,475.5C 399.517,475.157 398.183,475.824 397.5,477.5C 396.833,477.5 396.167,477.5 395.5,477.5C 394.167,477.5 392.833,477.5 391.5,477.5C 389.517,477.157 388.183,477.824 387.5,479.5C 286.833,479.5 186.167,479.5 85.5,479.5C 85.5,478.167 84.8333,477.5 83.5,477.5C 77.3041,476.989 71.3041,475.656 65.5,473.5C 65.5,472.167 64.8333,471.5 63.5,471.5C 62.8333,471.5 62.1667,471.5 61.5,471.5C 61.5,470.167 60.8333,469.5 59.5,469.5C 58.8333,469.5 58.1667,469.5 57.5,469.5C 57.5,468.167 56.8333,467.5 55.5,467.5C 54.8333,467.5 54.1667,467.5 53.5,467.5C 53.5,466.167 52.8333,465.5 51.5,465.5C 47.8351,464.003 44.5017,462.003 41.5,459.5C 41.5,458.167 40.8333,457.5 39.5,457.5C 32.8333,452.167 26.8333,446.167 21.5,439.5C 21.5,438.167 20.8333,437.5 19.5,437.5C 18.8333,436.167 18.1667,434.833 17.5,433.5C 17.5,432.167 16.8333,431.5 15.5,431.5C 14.1667,428.833 12.8333,426.167 11.5,423.5C 11.5,422.167 10.8333,421.5 9.5,421.5C 9.5,420.833 9.5,420.167 9.5,419.5C 9.5,418.167 8.83333,417.5 7.5,417.5C 7.5,416.833 7.5,416.167 7.5,415.5C 7.5,414.167 6.83333,413.5 5.5,413.5C 5.5,412.167 5.5,410.833 5.5,409.5C 5.5,408.167 4.83333,407.5 3.5,407.5C 3.5,406.167 3.5,404.833 3.5,403.5C 3.5,402.833 3.5,402.167 3.5,401.5C 3.84316,399.517 3.17649,398.183 1.5,397.5C 1.5,396.167 1.5,394.833 1.5,393.5C 1.5,392.167 0.833333,391.5 -0.5,391.5C -0.5,290.833 -0.5,190.167 -0.5,89.5C 0.833333,89.5 1.5,88.8333 1.5,87.5C 1.5,84.8333 1.5,82.1667 1.5,79.5C 2.83333,79.5 3.5,78.8333 3.5,77.5C 3.5,76.1667 3.5,74.8333 3.5,73.5C 4.83333,73.5 5.5,72.8333 5.5,71.5C 5.5,70.1667 5.5,68.8333 5.5,67.5C 6.83333,67.5 7.5,66.8333 7.5,65.5C 7.5,64.8333 7.5,64.1667 7.5,63.5C 8.83333,63.5 9.5,62.8333 9.5,61.5C 9.5,60.8333 9.5,60.1667 9.5,59.5C 10.8333,59.5 11.5,58.8333 11.5,57.5C 12.8333,54.8333 14.1667,52.1667 15.5,49.5C 16.8333,49.5 17.5,48.8333 17.5,47.5C 18.1667,46.1667 18.8333,44.8333 19.5,43.5C 20.8333,43.5 21.5,42.8333 21.5,41.5C 26.8333,34.8333 32.8333,28.8333 39.5,23.5C 40.8333,23.5 41.5,22.8333 41.5,21.5C 44.5017,18.997 47.8351,16.997 51.5,15.5C 52.8333,15.5 53.5,14.8333 53.5,13.5C 54.1667,13.5 54.8333,13.5 55.5,13.5C 56.8333,13.5 57.5,12.8333 57.5,11.5C 58.1667,11.5 58.8333,11.5 59.5,11.5C 60.8333,11.5 61.5,10.8333 61.5,9.5C 62.1667,9.5 62.8333,9.5 63.5,9.5C 64.8333,9.5 65.5,8.83333 65.5,7.5C 68.1667,6.83333 70.8333,6.16667 73.5,5.5C 74.8333,5.5 75.5,4.83333 75.5,3.5C 77.5,3.5 79.5,3.5 81.5,3.5C 82.1667,3.5 82.8333,3.5 83.5,3.5C 86.6981,4.03562 89.3647,3.36895 91.5,1.5 Z"/></g>
<g><path style="opacity:0.251" fill="#2beb55" d="M 397.5,3.5 C 398.833,3.5 400.167,3.5 401.5,3.5C 401.5,4.16667 401.5,4.83333 401.5,5.5C 399.517,5.84316 398.183,5.17649 397.5,3.5 Z"/></g>
<g><path style="opacity:0.051" fill="#000000" d="M 401.5,3.5 C 402.833,3.5 403.5,4.16667 403.5,5.5C 402.833,5.5 402.167,5.5 401.5,5.5C 401.5,4.83333 401.5,4.16667 401.5,3.5 Z"/></g>
<g><path style="opacity:0.055" fill="#000000" d="M 407.5,5.5 C 408.833,5.5 409.5,6.16667 409.5,7.5C 409.5,6.16667 408.833,5.5 407.5,5.5 Z"/></g>
<g><path style="opacity:0.078" fill="#000000" d="M 65.5,7.5 C 65.5,8.83333 64.8333,9.5 63.5,9.5C 63.5,8.16667 64.1667,7.5 65.5,7.5 Z"/></g>
<g><path style="opacity:0.141" fill="#1b0000" d="M 61.5,9.5 C 61.5,10.8333 60.8333,11.5 59.5,11.5C 59.5,10.1667 60.1667,9.5 61.5,9.5 Z"/></g>
<g><path style="opacity:0.118" fill="#000000" d="M 57.5,11.5 C 57.5,12.8333 56.8333,13.5 55.5,13.5C 55.5,12.1667 56.1667,11.5 57.5,11.5 Z"/></g>
<g><path style="opacity:0.047" fill="#000000" d="M 53.5,13.5 C 53.5,14.8333 52.8333,15.5 51.5,15.5C 51.5,14.1667 52.1667,13.5 53.5,13.5 Z"/></g>
<g><path style="opacity:0.106" fill="#25001c" d="M 427.5,15.5 C 428.833,15.5 429.5,16.1667 429.5,17.5C 429.5,16.1667 428.833,15.5 427.5,15.5 Z"/></g>
<g><path style="opacity:0.102" fill="#1c0009" d="M 433.5,19.5 C 434.833,19.5 435.5,20.1667 435.5,21.5C 435.5,20.1667 434.833,19.5 433.5,19.5 Z"/></g>
<g><path style="opacity:0.071" fill="#000000" d="M 41.5,21.5 C 41.5,22.8333 40.8333,23.5 39.5,23.5C 39.5,22.1667 40.1667,21.5 41.5,21.5 Z"/></g>
<g><path style="opacity:0.004" fill="#000000" d="M 441.5,25.5 C 442.833,25.5 443.5,26.1667 443.5,27.5C 443.5,26.1667 442.833,25.5 441.5,25.5 Z"/></g>
<g><path style="opacity:0.039" fill="#000000" d="M 443.5,27.5 C 444.833,27.5 445.5,28.1667 445.5,29.5C 445.5,28.1667 444.833,27.5 443.5,27.5 Z"/></g>
<g><path style="opacity:0.063" fill="#000000" d="M 445.5,29.5 C 446.833,29.5 447.5,30.1667 447.5,31.5C 447.5,30.1667 446.833,29.5 445.5,29.5 Z"/></g>
<g><path style="opacity:0.075" fill="#000000" d="M 447.5,31.5 C 448.833,31.5 449.5,32.1667 449.5,33.5C 449.5,32.1667 448.833,31.5 447.5,31.5 Z"/></g>
<g><path style="opacity:0.047" fill="#000000" d="M 449.5,33.5 C 450.833,33.5 451.5,34.1667 451.5,35.5C 451.5,34.1667 450.833,33.5 449.5,33.5 Z"/></g>
<g><path style="opacity:0.016" fill="#000000" d="M 451.5,35.5 C 452.833,35.5 453.5,36.1667 453.5,37.5C 453.5,36.1667 452.833,35.5 451.5,35.5 Z"/></g>
<g><path style="opacity:0.031" fill="#000000" d="M 21.5,41.5 C 21.5,42.8333 20.8333,43.5 19.5,43.5C 19.5,42.1667 20.1667,41.5 21.5,41.5 Z"/></g>
<g><path style="opacity:0.102" fill="#260013" d="M 17.5,47.5 C 17.5,48.8333 16.8333,49.5 15.5,49.5C 15.5,48.1667 16.1667,47.5 17.5,47.5 Z"/></g>
<g><path style="opacity:0.051" fill="#000000" d="M 11.5,57.5 C 11.5,58.8333 10.8333,59.5 9.5,59.5C 9.5,58.1667 10.1667,57.5 11.5,57.5 Z"/></g>
<g><path style="opacity:0.024" fill="#000000" d="M 467.5,59.5 C 468.833,59.5 469.5,60.1667 469.5,61.5C 469.5,60.1667 468.833,59.5 467.5,59.5 Z"/></g>
<g><path style="opacity:0.071" fill="#000000" d="M 9.5,61.5 C 9.5,62.8333 8.83333,63.5 7.5,63.5C 7.5,62.1667 8.16667,61.5 9.5,61.5 Z"/></g>
<g><path style="opacity:0.008" fill="#000000" d="M 469.5,63.5 C 470.833,63.5 471.5,64.1667 471.5,65.5C 471.5,64.1667 470.833,63.5 469.5,63.5 Z"/></g>
<g><path style="opacity:0.016" fill="#000000" d="M 7.5,65.5 C 7.5,66.8333 6.83333,67.5 5.5,67.5C 5.5,66.1667 6.16667,65.5 7.5,65.5 Z"/></g>
<g><path style="opacity:0.078" fill="#180000" d="M 5.5,71.5 C 5.5,72.8333 4.83333,73.5 3.5,73.5C 3.5,72.1667 4.16667,71.5 5.5,71.5 Z"/></g>
<g><path style="opacity:0.451" fill="#29ea55" d="M 471.5,69.5 C 473.176,70.1834 473.843,71.5168 473.5,73.5C 471.824,72.8166 471.157,71.4832 471.5,69.5 Z"/></g>
<g><path style="opacity:0.043" fill="#000000" d="M 3.5,77.5 C 3.5,78.8333 2.83333,79.5 1.5,79.5C 1.5,78.1667 2.16667,77.5 3.5,77.5 Z"/></g>
<g><path style="opacity:1" fill="#95bd9c" d="M 275.5,83.5 C 272.167,83.5 268.833,83.5 265.5,83.5C 266.694,82.2227 268.36,81.5561 270.5,81.5C 272.64,81.5561 274.306,82.2227 275.5,83.5 Z"/></g>
<g><path style="opacity:0.02" fill="#000000" d="M 475.5,81.5 C 476.833,81.5 477.5,82.1667 477.5,83.5C 477.5,82.1667 476.833,81.5 475.5,81.5 Z"/></g>
<g><path style="opacity:1" fill="#f9fcfa" d="M 265.5,83.5 C 268.833,83.5 272.167,83.5 275.5,83.5C 305.892,94.6901 335.892,107.023 365.5,120.5C 372.57,125.914 374.903,132.914 372.5,141.5C 367.471,152.885 362.471,164.219 357.5,175.5C 351.074,176.12 345.074,175.453 339.5,173.5C 339.342,170.639 340.008,167.972 341.5,165.5C 337.534,160.533 333.201,155.866 328.5,151.5C 327.833,150.167 327.167,148.833 326.5,147.5C 325.502,139.528 325.169,131.528 325.5,123.5C 316.942,120.758 308.608,117.424 300.5,113.5C 296.167,117.833 291.833,122.167 287.5,126.5C 284.45,128.517 281.117,129.517 277.5,129.5C 272.167,129.5 266.833,129.5 261.5,129.5C 258.92,130.615 257.254,132.615 256.5,135.5C 251.325,149.168 245.658,162.501 239.5,175.5C 238.167,175.5 236.833,175.5 235.5,175.5C 230.167,175.5 224.833,175.5 219.5,175.5C 230.707,146.411 243.041,117.745 256.5,89.5C 258.758,86.2177 261.758,84.2177 265.5,83.5 Z"/></g>
<g><path style="opacity:0.078" fill="#000000" d="M -0.5,87.5 C 0.166667,87.5 0.833333,87.5 1.5,87.5C 1.5,88.8333 0.833333,89.5 -0.5,89.5C -0.5,88.8333 -0.5,88.1667 -0.5,87.5 Z"/></g>
<g><path style="opacity:1" fill="#f4f8f5" d="M 223.5,93.5 C 228.167,93.5 232.833,93.5 237.5,93.5C 237.454,98.3534 236.454,103.02 234.5,107.5C 227.833,123.5 221.167,139.5 214.5,155.5C 211.419,163.338 207.086,170.338 201.5,176.5C 200.311,177.429 198.978,177.762 197.5,177.5C 197.176,173.445 197.509,169.445 198.5,165.5C 203.833,145.5 209.167,125.5 214.5,105.5C 217.164,101.18 220.164,97.1801 223.5,93.5 Z"/></g>
<g><path style="opacity:0.041" fill="#000000" d="M 477.5,93.5 C 478.167,93.5 478.833,93.5 479.5,93.5C 479.5,94.8333 479.5,96.1667 479.5,97.5C 477.824,96.8166 477.157,95.4832 477.5,93.5 Z"/></g>
<g><path style="opacity:1" fill="#f2f7f3" d="M 181.5,175.5 C 179.5,175.5 177.5,175.5 175.5,175.5C 175.5,173.5 175.5,171.5 175.5,169.5C 176.99,151.403 179.323,133.403 182.5,115.5C 185.396,106.212 191.73,102.212 201.5,103.5C 194.424,127.393 187.758,151.393 181.5,175.5 Z"/></g>
<g><path style="opacity:0.263" fill="#30fe5e" d="M 479.5,99.5 C 479.5,193.5 479.5,287.5 479.5,381.5C 478.167,334.838 477.5,287.838 477.5,240.5C 477.5,193.162 478.167,146.162 479.5,99.5 Z"/></g>
<g><path style="opacity:1" fill="#6da777" d="M 261.5,129.5 C 266.833,129.5 272.167,129.5 277.5,129.5C 275.257,130.812 272.59,131.478 269.5,131.5C 266.41,131.478 263.743,130.812 261.5,129.5 Z"/></g>
<g><path style="opacity:1" fill="#fafcfa" d="M 319.5,173.5 C 299.194,175.488 278.527,176.155 257.5,175.5C 257.244,171.191 258.244,167.191 260.5,163.5C 269.657,152.39 281.323,148.723 295.5,152.5C 301.896,154.197 307.562,157.197 312.5,161.5C 313.73,164.732 315.73,167.399 318.5,169.5C 319.429,170.689 319.762,172.022 319.5,173.5 Z"/></g>
<g><path style="opacity:1" fill="#7dad85" d="M 161.5,159.5 C 154.167,159.5 146.833,159.5 139.5,159.5C 142.768,158.178 146.435,157.511 150.5,157.5C 154.565,157.511 158.232,158.178 161.5,159.5 Z"/></g>
<g><path style="opacity:1" fill="#fcfdfd" d="M 139.5,159.5 C 146.833,159.5 154.167,159.5 161.5,159.5C 161.5,164.833 161.5,170.167 161.5,175.5C 155.811,177.188 149.811,178.521 143.5,179.5C 143.975,183.309 145.975,185.975 149.5,187.5C 217.158,189.497 285.158,190.163 353.5,189.5C 363.534,192.536 369.867,199.203 372.5,209.5C 373.498,217.472 373.831,225.472 373.5,233.5C 353.804,232.846 334.471,233.512 315.5,235.5C 296.845,240.165 286.845,252.165 285.5,271.5C 285.72,291.033 295.054,303.7 313.5,309.5C 332.471,311.488 351.804,312.154 371.5,311.5C 371.5,320.167 371.5,328.833 371.5,337.5C 370.328,342.18 368.328,346.513 365.5,350.5C 359.031,355.433 351.698,357.767 343.5,357.5C 276.833,357.5 210.167,357.5 143.5,357.5C 134.296,357.732 126.629,354.399 120.5,347.5C 118.917,345.01 117.917,342.343 117.5,339.5C 117.5,285.5 117.5,231.5 117.5,177.5C 120.573,166.437 127.906,160.437 139.5,159.5 Z"/></g>
<g><path style="opacity:1" fill="#6aa876" d="M 161.5,159.5 C 162.812,161.743 163.478,164.41 163.5,167.5C 163.478,170.59 162.812,173.257 161.5,175.5C 161.5,170.167 161.5,164.833 161.5,159.5 Z"/></g>
<g><path style="opacity:1" fill="#83b48c" d="M 175.5,169.5 C 175.5,171.5 175.5,173.5 175.5,175.5C 177.5,175.5 179.5,175.5 181.5,175.5C 179.365,177.369 176.698,178.036 173.5,177.5C 172.964,174.302 173.631,171.635 175.5,169.5 Z"/></g>
<g><path style="opacity:1" fill="#9dc2a4" d="M 219.5,175.5 C 224.833,175.5 230.167,175.5 235.5,175.5C 233.257,176.812 230.59,177.478 227.5,177.5C 224.41,177.478 221.743,176.812 219.5,175.5 Z"/></g>
<g><path style="opacity:1" fill="#9dc3a4" d="M 319.5,173.5 C 320.586,173.62 321.253,174.287 321.5,175.5C 321.253,176.713 320.586,177.38 319.5,177.5C 298.833,177.5 278.167,177.5 257.5,177.5C 257.5,176.833 257.5,176.167 257.5,175.5C 278.527,176.155 299.194,175.488 319.5,173.5 Z"/></g>
<g><path style="opacity:1" fill="#88b690" d="M 339.5,173.5 C 345.074,175.453 351.074,176.12 357.5,175.5C 351.25,177.459 344.584,178.126 337.5,177.5C 337.157,175.517 337.824,174.183 339.5,173.5 Z"/></g>
<g><path style="opacity:1" fill="#007d0a" d="M 257.5,177.5 C 278.167,177.5 298.833,177.5 319.5,177.5C 309.522,178.832 299.189,179.499 288.5,179.5C 277.811,179.499 267.478,178.832 257.5,177.5 Z"/></g>
<g><path style="opacity:1" fill="#008216" d="M 351.5,187.5 C 284.833,187.5 218.167,187.5 151.5,187.5C 184.493,186.167 217.827,185.5 251.5,185.5C 285.173,185.5 318.507,186.167 351.5,187.5 Z"/></g>
<g><path style="opacity:1" fill="#ebf2ec" d="M 149.5,187.5 C 150.167,187.5 150.833,187.5 151.5,187.5C 218.167,187.5 284.833,187.5 351.5,187.5C 352.833,187.5 353.5,188.167 353.5,189.5C 285.158,190.163 217.158,189.497 149.5,187.5 Z"/></g>
<g><path style="opacity:1" fill="#007d00" d="M 115.5,177.5 C 115.5,231.5 115.5,285.5 115.5,339.5C 114.167,312.842 113.5,285.842 113.5,258.5C 113.5,231.158 114.167,204.158 115.5,177.5 Z"/></g>
<g><path style="opacity:1" fill="#e0ede3" d="M 115.5,177.5 C 116.167,177.5 116.833,177.5 117.5,177.5C 117.5,231.5 117.5,285.5 117.5,339.5C 116.833,339.5 116.167,339.5 115.5,339.5C 115.5,285.5 115.5,231.5 115.5,177.5 Z"/></g>
<g><path style="opacity:1" fill="#208529" d="M 173.5,225.5 C 181.32,225.026 188.654,226.692 195.5,230.5C 201.46,235.456 204.126,241.789 203.5,249.5C 202.199,271.108 190.865,279.441 169.5,274.5C 167.343,272.588 165.009,270.921 162.5,269.5C 155.97,257.443 155.97,245.443 162.5,233.5C 166.124,230.546 169.791,227.879 173.5,225.5 Z"/></g>
<g><path style="opacity:1" fill="#f8fbf8" d="M 173.5,231.5 C 193.697,230.056 201.364,239.389 196.5,259.5C 192.466,270.348 184.799,274.015 173.5,270.5C 172.012,268.423 170.012,267.423 167.5,267.5C 167.083,264.657 166.083,261.99 164.5,259.5C 162.826,251.911 163.492,244.577 166.5,237.5C 168.79,235.227 171.123,233.227 173.5,231.5 Z"/></g>
<g><path style="opacity:1" fill="#1a8327" d="M 255.5,241.5 C 255.5,246.833 255.5,252.167 255.5,257.5C 253.622,270.037 246.288,276.037 233.5,275.5C 221.623,276.276 214.289,270.943 211.5,259.5C 211.5,254.167 211.5,248.833 211.5,243.5C 214.678,232.047 222.344,226.047 234.5,225.5C 244.683,226.685 251.683,232.019 255.5,241.5 Z"/></g>
<g><path style="opacity:1" fill="#f8fbf9" d="M 217.5,257.5 C 217.5,253.5 217.5,249.5 217.5,245.5C 217.201,243.396 217.534,241.396 218.5,239.5C 224.409,231.947 232.076,229.614 241.5,232.5C 243.332,233.248 244.999,234.248 246.5,235.5C 252.254,244.453 252.921,253.786 248.5,263.5C 239.741,273.187 230.408,273.853 220.5,265.5C 218.917,263.01 217.917,260.343 217.5,257.5 Z"/></g>
<g><path style="opacity:1" fill="#6ba675" d="M 373.5,233.5 C 354.529,235.488 335.196,236.154 315.5,235.5C 334.471,233.512 353.804,232.846 373.5,233.5 Z"/></g>
<g><path style="opacity:1" fill="#94be9b" d="M 375.5,245.5 C 358.167,245.5 340.833,245.5 323.5,245.5C 331.807,244.169 340.473,243.502 349.5,243.5C 358.527,243.502 367.193,244.169 375.5,245.5 Z"/></g>
<g><path style="opacity:1" fill="#fafcfa" d="M 323.5,245.5 C 340.833,245.5 358.167,245.5 375.5,245.5C 378.554,245.354 380.554,246.687 381.5,249.5C 381.5,264.833 381.5,280.167 381.5,295.5C 380.385,298.08 378.385,299.746 375.5,300.5C 358.167,301.833 340.833,301.833 323.5,300.5C 306.861,298.53 298.861,289.197 299.5,272.5C 299.833,268.833 300.167,265.167 300.5,261.5C 302.689,258.344 304.356,255.011 305.5,251.5C 309.011,250.356 312.344,248.689 315.5,246.5C 318.086,245.52 320.753,245.187 323.5,245.5 Z"/></g>
<g><path style="opacity:1" fill="#85b68e" d="M 211.5,243.5 C 211.5,248.833 211.5,254.167 211.5,259.5C 210.188,257.257 209.522,254.59 209.5,251.5C 209.522,248.41 210.188,245.743 211.5,243.5 Z"/></g>
<g><path style="opacity:1" fill="#90ba97" d="M 217.5,245.5 C 217.5,249.5 217.5,253.5 217.5,257.5C 216.206,255.952 215.539,253.952 215.5,251.5C 215.539,249.048 216.206,247.048 217.5,245.5 Z"/></g>
<g><path style="opacity:1" fill="#509b5d" d="M 255.5,241.5 C 256.812,243.743 257.478,246.41 257.5,249.5C 257.478,252.59 256.812,255.257 255.5,257.5C 255.5,252.167 255.5,246.833 255.5,241.5 Z"/></g>
<g><path style="opacity:1" fill="#aecdb3" d="M 381.5,249.5 C 382.831,256.803 383.498,264.47 383.5,272.5C 383.498,280.53 382.831,288.197 381.5,295.5C 381.5,280.167 381.5,264.833 381.5,249.5 Z"/></g>
<g><path style="opacity:1" fill="#1a832d" d="M 325.5,259.5 C 341.159,257.49 347.493,264.157 344.5,279.5C 334.825,290.572 326.158,289.905 318.5,277.5C 316.461,269.606 318.794,263.606 325.5,259.5 Z"/></g>
<g><path style="opacity:1" fill="#539e62" d="M 313.5,309.5 C 333.196,308.846 352.529,309.512 371.5,311.5C 351.804,312.154 332.471,311.488 313.5,309.5 Z"/></g>
<g><path style="opacity:1" fill="#158227" d="M 213.5,327.5 C 206.167,327.5 198.833,327.5 191.5,327.5C 185.448,326.153 179.448,324.486 173.5,322.5C 165.828,318.333 158.495,313.666 151.5,308.5C 148.546,303.61 144.879,299.277 140.5,295.5C 139.103,292.352 139.769,289.686 142.5,287.5C 150.233,295.903 158.566,303.57 167.5,310.5C 174.595,314.381 181.929,317.715 189.5,320.5C 200.167,321.833 210.833,321.833 221.5,320.5C 238.522,314.809 252.856,305.143 264.5,291.5C 265.429,290.311 265.762,288.978 265.5,287.5C 267.5,287.5 269.5,287.5 271.5,287.5C 271.813,290.247 271.48,292.914 270.5,295.5C 264.167,301.833 257.833,308.167 251.5,314.5C 244.833,317.833 238.167,321.167 231.5,324.5C 225.636,326.407 219.636,327.407 213.5,327.5 Z"/></g>
<g><path style="opacity:1" fill="#92bd9a" d="M 371.5,311.5 C 372.825,315.445 373.492,319.778 373.5,324.5C 373.492,329.222 372.825,333.555 371.5,337.5C 371.5,328.833 371.5,320.167 371.5,311.5 Z"/></g>
<g><path style="opacity:1" fill="#83b58c" d="M 191.5,327.5 C 198.833,327.5 206.167,327.5 213.5,327.5C 210.232,328.822 206.565,329.489 202.5,329.5C 198.435,329.489 194.768,328.822 191.5,327.5 Z"/></g>
<g><path style="opacity:1" fill="#258d3d" d="M 143.5,357.5 C 210.167,357.5 276.833,357.5 343.5,357.5C 310.507,358.833 277.173,359.5 243.5,359.5C 209.827,359.5 176.493,358.833 143.5,357.5 Z"/></g>
<g><path style="opacity:0.041" fill="#000000" d="M 479.5,383.5 C 479.5,384.833 479.5,386.167 479.5,387.5C 478.833,387.5 478.167,387.5 477.5,387.5C 477.157,385.517 477.824,384.183 479.5,383.5 Z"/></g>
<g><path style="opacity:0.078" fill="#000000" d="M -0.5,391.5 C 0.833333,391.5 1.5,392.167 1.5,393.5C 0.833333,393.5 0.166667,393.5 -0.5,393.5C -0.5,392.833 -0.5,392.167 -0.5,391.5 Z"/></g>
<g><path style="opacity:0.329" fill="#29ef55" d="M 477.5,391.5 C 477.5,393.5 477.5,395.5 477.5,397.5C 476.833,397.5 476.167,397.5 475.5,397.5C 475.025,394.918 475.692,392.918 477.5,391.5 Z"/></g>
<g><path style="opacity:0.016" fill="#000000" d="M 475.5,397.5 C 476.167,397.5 476.833,397.5 477.5,397.5C 477.5,398.833 476.833,399.5 475.5,399.5C 475.5,398.833 475.5,398.167 475.5,397.5 Z"/></g>
<g><path style="opacity:0.216" fill="#28f054" d="M 1.5,397.5 C 3.17649,398.183 3.84316,399.517 3.5,401.5C 2.83333,401.5 2.16667,401.5 1.5,401.5C 1.5,400.167 1.5,398.833 1.5,397.5 Z"/></g>
<g><path style="opacity:0.035" fill="#000000" d="M 1.5,401.5 C 2.16667,401.5 2.83333,401.5 3.5,401.5C 3.5,402.167 3.5,402.833 3.5,403.5C 2.16667,403.5 1.5,402.833 1.5,401.5 Z"/></g>
<g><path style="opacity:0.122" fill="#2afc59" d="M 475.5,401.5 C 475.843,403.483 475.176,404.817 473.5,405.5C 473.157,403.517 473.824,402.183 475.5,401.5 Z"/></g>
<g><path style="opacity:0.075" fill="#270000" d="M 3.5,407.5 C 4.83333,407.5 5.5,408.167 5.5,409.5C 4.16667,409.5 3.5,408.833 3.5,407.5 Z"/></g>
<g><path style="opacity:0.122" fill="#2ef658" d="M 473.5,407.5 C 473.843,409.483 473.176,410.817 471.5,411.5C 471.157,409.517 471.824,408.183 473.5,407.5 Z"/></g>
<g><path style="opacity:0.012" fill="#000000" d="M 5.5,413.5 C 6.83333,413.5 7.5,414.167 7.5,415.5C 6.16667,415.5 5.5,414.833 5.5,413.5 Z"/></g>
<g><path style="opacity:0.055" fill="#000000" d="M 7.5,417.5 C 8.83333,417.5 9.5,418.167 9.5,419.5C 8.16667,419.5 7.5,418.833 7.5,417.5 Z"/></g>
<g><path style="opacity:0.039" fill="#000000" d="M 9.5,421.5 C 10.8333,421.5 11.5,422.167 11.5,423.5C 10.1667,423.5 9.5,422.833 9.5,421.5 Z"/></g>
<g><path style="opacity:0.082" fill="#000000" d="M 15.5,431.5 C 16.8333,431.5 17.5,432.167 17.5,433.5C 16.1667,433.5 15.5,432.833 15.5,431.5 Z"/></g>
<g><path style="opacity:0.118" fill="#291933" d="M 459.5,435.5 C 459.5,436.833 458.833,437.5 457.5,437.5C 457.5,436.167 458.167,435.5 459.5,435.5 Z"/></g>
<g><path style="opacity:0.035" fill="#000000" d="M 19.5,437.5 C 20.8333,437.5 21.5,438.167 21.5,439.5C 20.1667,439.5 19.5,438.833 19.5,437.5 Z"/></g>
<g><path style="opacity:0.004" fill="#000000" d="M 453.5,443.5 C 453.5,444.833 452.833,445.5 451.5,445.5C 451.5,444.167 452.167,443.5 453.5,443.5 Z"/></g>
<g><path style="opacity:0.02" fill="#000000" d="M 451.5,445.5 C 451.5,446.833 450.833,447.5 449.5,447.5C 449.5,446.167 450.167,445.5 451.5,445.5 Z"/></g>
<g><path style="opacity:0.035" fill="#000000" d="M 449.5,447.5 C 449.5,448.833 448.833,449.5 447.5,449.5C 447.5,448.167 448.167,447.5 449.5,447.5 Z"/></g>
<g><path style="opacity:0.031" fill="#000000" d="M 447.5,449.5 C 447.5,450.833 446.833,451.5 445.5,451.5C 445.5,450.167 446.167,449.5 447.5,449.5 Z"/></g>
<g><path style="opacity:0.035" fill="#000000" d="M 445.5,451.5 C 445.5,452.833 444.833,453.5 443.5,453.5C 443.5,452.167 444.167,451.5 445.5,451.5 Z"/></g>
<g><path style="opacity:0.008" fill="#000000" d="M 443.5,453.5 C 443.5,454.833 442.833,455.5 441.5,455.5C 441.5,454.167 442.167,453.5 443.5,453.5 Z"/></g>
<g><path style="opacity:0.051" fill="#000000" d="M 39.5,457.5 C 40.8333,457.5 41.5,458.167 41.5,459.5C 40.1667,459.5 39.5,458.833 39.5,457.5 Z"/></g>
<g><path style="opacity:0.071" fill="#000000" d="M 435.5,459.5 C 435.5,460.833 434.833,461.5 433.5,461.5C 433.5,460.167 434.167,459.5 435.5,459.5 Z"/></g>
<g><path style="opacity:0.063" fill="#000000" d="M 429.5,463.5 C 429.5,464.833 428.833,465.5 427.5,465.5C 427.5,464.167 428.167,463.5 429.5,463.5 Z"/></g>
<g><path style="opacity:0.031" fill="#000000" d="M 51.5,465.5 C 52.8333,465.5 53.5,466.167 53.5,467.5C 52.1667,467.5 51.5,466.833 51.5,465.5 Z"/></g>
<g><path style="opacity:0.102" fill="#000000" d="M 55.5,467.5 C 56.8333,467.5 57.5,468.167 57.5,469.5C 56.1667,469.5 55.5,468.833 55.5,467.5 Z"/></g>
<g><path style="opacity:0.122" fill="#0f0007" d="M 59.5,469.5 C 60.8333,469.5 61.5,470.167 61.5,471.5C 60.1667,471.5 59.5,470.833 59.5,469.5 Z"/></g>
<g><path style="opacity:0.063" fill="#000000" d="M 63.5,471.5 C 64.8333,471.5 65.5,472.167 65.5,473.5C 64.1667,473.5 63.5,472.833 63.5,471.5 Z"/></g>
<g><path style="opacity:0.176" fill="#2ae954" d="M 413.5,471.5 C 412.817,473.176 411.483,473.843 409.5,473.5C 410.183,471.824 411.517,471.157 413.5,471.5 Z"/></g>
<g><path style="opacity:0.035" fill="#000000" d="M 409.5,473.5 C 409.5,474.833 408.833,475.5 407.5,475.5C 407.5,474.167 408.167,473.5 409.5,473.5 Z"/></g>
<g><path style="opacity:0.204" fill="#2af057" d="M 401.5,475.5 C 401.5,476.167 401.5,476.833 401.5,477.5C 400.167,477.5 398.833,477.5 397.5,477.5C 398.183,475.824 399.517,475.157 401.5,475.5 Z"/></g>
<g><path style="opacity:0.024" fill="#000000" d="M 401.5,475.5 C 402.167,475.5 402.833,475.5 403.5,475.5C 403.5,476.833 402.833,477.5 401.5,477.5C 401.5,476.833 401.5,476.167 401.5,475.5 Z"/></g>
<g><path style="opacity:0.051" fill="#000000" d="M 83.5,477.5 C 84.8333,477.5 85.5,478.167 85.5,479.5C 84.8333,479.5 84.1667,479.5 83.5,479.5C 83.5,478.833 83.5,478.167 83.5,477.5 Z"/></g>
<g><path style="opacity:0.275" fill="#2aee56" d="M 391.5,477.5 C 391.5,478.167 391.5,478.833 391.5,479.5C 390.167,479.5 388.833,479.5 387.5,479.5C 388.183,477.824 389.517,477.157 391.5,477.5 Z"/></g>
<g><path style="opacity:0.004" fill="#0b0006" d="M 391.5,477.5 C 392.833,477.5 394.167,477.5 395.5,477.5C 395.5,478.167 395.5,478.833 395.5,479.5C 394.167,479.5 392.833,479.5 391.5,479.5C 391.5,478.833 391.5,478.167 391.5,477.5 Z"/></g>
</svg>
