<?xml version="1.0" encoding="UTF-8"?>
<svg version="1.1" xmlns="http://www.w3.org/2000/svg" width="1921" height="656">
<path d="M0 0 C126.49101796 0 126.49101796 0 144 8 C144.80824219 8.36867188 145.61648437 8.73734375 146.44921875 9.1171875 C161.78000177 16.87622254 170.63719441 30.06927499 175.97265625 45.8828125 C180.27413901 61.20809528 180.04579303 80.2586015 172.875 94.625 C165.68351718 106.48879351 155.98742764 113.50760708 143.48046875 118.921875 C141.27778515 119.87926189 139.13650175 120.90435808 137 122 C137.72703125 122.20753906 138.4540625 122.41507812 139.203125 122.62890625 C154.1610842 127.21217837 166.920615 134.85396417 174.44042969 148.97094727 C183.23870246 166.33841335 184.24866345 188.46060134 178.1953125 206.98046875 C171.41512101 224.10820739 160.68595692 235.33283842 144.02734375 243.14257812 C102.90092435 260.53612159 30.14408848 250 0 250 C0 167.5 0 85 0 0 Z M48 46 C48 63.16 48 80.32 48 98 C55.77415807 98.08414603 63.54664355 98.1642509 71.32086182 98.20700073 C74.94197297 98.22802498 78.5627027 98.25606574 82.18359375 98.30175781 C85.67847537 98.34557814 89.17298976 98.36921218 92.66812515 98.37950897 C94.63441341 98.39037481 96.60055623 98.42154181 98.56661987 98.45318604 C107.51063294 98.45540003 115.0497536 97.14320612 122.375 91.75 C128.85016522 84.96649358 130.4475806 77.32660912 130.3359375 68.171875 C129.61461453 61.36124416 126.61602622 55.95158986 121.375 51.5625 C112.41514471 45.83448724 102.57956848 45.57490621 92.23828125 45.70703125 C90.33057198 45.71339851 90.33057198 45.71339851 88.38432312 45.71989441 C85.04197301 45.73373588 81.70026659 45.76057357 78.35809326 45.79400635 C74.93214505 45.82497941 71.50612774 45.83862297 68.08007812 45.85351562 C61.38636294 45.88385885 54.69375527 45.94260673 48 46 Z M48 145 C48 164.14 48 183.28 48 203 C55.88716602 203.08417966 63.77267909 203.16428071 71.65990448 203.20700073 C75.33377048 203.22801232 79.00725965 203.25602903 82.6809082 203.30175781 C86.22766472 203.3456244 89.77405877 203.36922168 93.3210659 203.37950897 C95.31445154 203.39035921 97.30769393 203.42151824 99.30085754 203.45318604 C109.4748067 203.45566399 118.91427473 201.92656482 126.56640625 194.71484375 C133.14097172 186.85044527 133.63765913 177.72968718 133.18359375 167.921875 C132.54712128 161.25922699 128.73509473 155.52922105 124 151 C117.28126607 146.96875964 111.69225149 144.8705442 103.85449219 144.88647461 C102.61350769 144.88655014 101.37252319 144.88662567 100.09393311 144.88670349 C98.74491333 144.89180969 97.39589396 144.89702568 96.046875 144.90234375 C94.66253714 144.90420976 93.27819862 144.9056328 91.89385986 144.90663147 C88.25738692 144.91044227 84.62095418 144.92026025 80.98449707 144.93133545 C77.27092034 144.9415805 73.5573369 144.94619056 69.84375 144.95117188 C62.56246455 144.96135264 55.28128935 144.98092794 48 145 Z " fill="#01B7F8" transform="translate(5,285)"/>
<path d="M0 0 C4.63758484 3.71514552 8.84052957 7.7647006 12.140625 12.71484375 C12.470625 6.44484375 12.800625 0.17484375 13.140625 -6.28515625 C28.980625 -6.28515625 44.820625 -6.28515625 61.140625 -6.28515625 C61.20850226 17.28148081 61.26369983 40.84803799 61.29606152 64.41474819 C61.31149099 75.35864718 61.33250506 86.30248085 61.36694336 97.24633789 C61.39696626 106.79166192 61.41622845 116.33693861 61.42289048 125.88230854 C61.42678102 130.93045833 61.43584143 135.97847276 61.45781517 141.0265789 C61.4783846 145.79128533 61.48441808 150.5558024 61.47994804 155.32054901 C61.4807642 157.05659329 61.48660673 158.7926448 61.49824142 160.52865028 C61.64960981 184.3081218 57.34522616 206.45504803 40.55859375 224.39453125 C25.92654677 238.43562318 6.88467305 243.3792702 -12.859375 244.71484375 C-14.39634033 244.84076904 -14.39634033 244.84076904 -15.96435547 244.96923828 C-38.64020803 246.65320292 -56.36236987 241.45941042 -73.859375 226.71484375 C-75.39418911 225.37881581 -76.90569982 224.0137305 -78.359375 222.58984375 C-79.0090625 221.96851563 -79.65875 221.3471875 -80.328125 220.70703125 C-82.11559021 218.38150253 -82.50037636 216.59680502 -82.859375 213.71484375 C-82.25416016 213.20050781 -82.25416016 213.20050781 -81.63671875 212.67578125 C-76.76312961 208.4747681 -72.05148999 204.11580402 -67.359375 199.71484375 C-62.27694824 194.94779131 -57.17049033 190.22844336 -51.859375 185.71484375 C-51.16714844 186.27751953 -51.16714844 186.27751953 -50.4609375 186.8515625 C-39.48435676 195.46362289 -27.94569439 200.16435947 -13.859375 198.71484375 C-5.08383274 197.06026657 2.70519842 194.10345236 8.140625 186.71484375 C11.99819785 179.52443525 12.67014895 173.14228355 12.390625 165.08984375 C12.37257813 164.08566406 12.35453125 163.08148437 12.3359375 162.046875 C12.28936497 159.60181723 12.22399528 157.15887563 12.140625 154.71484375 C11.59535156 155.36710938 11.05007813 156.019375 10.48828125 156.69140625 C1.79799772 166.76322204 -7.34396014 173.58213711 -21.00878906 174.92626953 C-37.76488157 175.93423629 -53.20590977 172.57795838 -66.234375 161.40234375 C-70.57655126 157.2477495 -73.89998134 152.93155269 -76.859375 147.71484375 C-77.29894531 146.96847656 -77.73851562 146.22210938 -78.19140625 145.453125 C-88.02064362 127.48729838 -88.20702657 106.09252567 -88.12011719 86.14013672 C-88.10938737 83.21821351 -88.12008515 80.29690485 -88.1328125 77.375 C-88.15204463 52.57301028 -86.44311759 25.66595146 -68.1640625 6.89453125 C-49.92205504 -10.3580792 -21.13614194 -14.93975501 0 0 Z M-33.859375 45.71484375 C-39.2523579 53.54902897 -40.17054662 62.87522465 -40.16015625 72.140625 C-40.16444138 73.00946823 -40.1687265 73.87831146 -40.17314148 74.77348328 C-40.17884598 76.59954971 -40.17941394 78.42563885 -40.17504883 80.25170898 C-40.17189482 83.01000738 -40.19537629 85.76722474 -40.22070312 88.52539062 C-40.27543275 103.40160831 -39.36343184 114.97456311 -28.609375 126.02734375 C-20.73815682 130.85740945 -12.8263621 131.51071824 -3.859375 129.71484375 C2.39333801 127.77398485 6.57568773 124.14242347 10.140625 118.71484375 C13.37534387 111.85423934 13.59455766 105.10001985 13.57421875 97.62890625 C13.5794606 96.49133881 13.58470245 95.35377136 13.59010315 94.18173218 C13.59649789 91.78652763 13.59521959 89.39129157 13.58666992 86.99609375 C13.57816626 83.35749628 13.60694985 79.72047383 13.63867188 76.08203125 C13.64028444 73.74349005 13.6397053 71.4049461 13.63671875 69.06640625 C13.64795273 67.99210358 13.65918671 66.9178009 13.67076111 65.8109436 C13.58973138 56.90358828 11.97631399 48.57056395 5.953125 41.71484375 C-0.19181592 36.27441835 -7.20728336 35.15827719 -15.2265625 35.4375 C-23.06361542 36.26306492 -28.61504552 39.89946507 -33.859375 45.71484375 Z " fill="#01B7F8" transform="translate(925.859375,362.28515625)"/>
<path d="M0 0 C-1.5010011 4.96484978 -3.57740368 9.41683691 -5.9140625 14.0234375 C-6.28856537 14.76961334 -6.66306824 15.51578918 -7.04891968 16.28457642 C-8.23717966 18.64996797 -9.43099382 21.0125047 -10.625 23.375 C-11.43526526 24.98549127 -12.24516498 26.59616651 -13.0546875 28.20703125 C-15.03223454 32.14016234 -17.01476516 36.07074408 -19 40 C-23.74011746 40 -26.17113262 38.31961881 -30.0625 35.9375 C-51.69529176 23.30649082 -76.21414948 17.56748482 -101 23 C-109.51971196 25.32254271 -117.80286604 28.73643356 -122.5 36.625 C-125.17443115 42.8177939 -125.24236887 50.57689161 -122.8125 56.875 C-117.64301913 65.78789806 -111.29240406 69.88098134 -101.41894531 72.75 C-93.99422907 74.70481045 -86.49836189 76.35535786 -79 78 C-19.35343754 91.08741363 -19.35343754 91.08741363 -3 116 C6.8092708 135.06942211 7.58319796 158.93098987 1.25 179.25 C-2.62652007 189.84298158 -8.03903196 198.02491677 -16 206 C-16.54140625 206.55300781 -17.0828125 207.10601563 -17.640625 207.67578125 C-40.26833327 228.87497259 -74.99476767 230.02646125 -104.18466187 229.34713745 C-132.59890454 228.35089451 -163.5741367 216.90214382 -185 198 C-178.29068286 185.16919109 -171.1626002 172.58210425 -164 160 C-159.0893436 160 -156.7153247 161.92051503 -152.8125 164.5625 C-128.79394751 180.13151116 -98.23601195 186.33490234 -70 180.8125 C-64.24903564 179.30171382 -59.08684061 177.0676367 -54 174 C-53.071875 173.443125 -52.14375 172.88625 -51.1875 172.3125 C-46.16752769 167.00567213 -43.69632734 161.17762866 -43.4375 153.875 C-43.7889135 146.66177543 -45.88938707 141.72568889 -51.125 136.75 C-58.64757612 130.99166946 -67.66903576 129.21832912 -76.8125 127.625 C-79.11096357 127.20076797 -81.40913011 126.77492424 -83.70703125 126.34765625 C-84.8976416 126.12867676 -86.08825195 125.90969727 -87.31494141 125.68408203 C-146.20086218 114.75269539 -146.20086218 114.75269539 -162.87890625 92.4921875 C-174.43224042 74.48172672 -175.42478672 50.42738324 -171 30 C-165.76311057 11.60172054 -155.28227051 -3.40128673 -138.54296875 -13.03125 C-95.59704067 -36.52346066 -39.00016449 -26.928685 0 0 Z " fill="#01B7F8" transform="translate(559,308)"/>
<path d="M0 0 C1.28519531 -0.01160156 2.57039063 -0.02320313 3.89453125 -0.03515625 C23.75220098 0.02471612 42.72335576 5.286 57.6875 18.9375 C72.37183631 34.61687347 74.68318586 54.84333711 74.61352539 75.45581055 C74.61367142 76.60833817 74.61381744 77.76086578 74.6139679 78.94831848 C74.61327686 82.71947173 74.60552266 86.49057424 74.59765625 90.26171875 C74.59578919 92.89158603 74.59436665 95.52145366 74.59336853 98.15132141 C74.5902755 104.34167475 74.58208977 110.53201017 74.57201904 116.72235566 C74.56079451 123.77688757 74.55533156 130.83142039 74.55032361 137.88595903 C74.5399052 152.38231653 74.52158528 166.8786547 74.5 181.375 C59.98 181.375 45.46 181.375 30.5 181.375 C30.17 176.755 29.84 172.135 29.5 167.375 C27.8603125 168.9528125 27.8603125 168.9528125 26.1875 170.5625 C11.03731492 183.76556623 -10.45448988 184.303546 -29.5 183.375 C-43.17453787 182.1679086 -56.42890523 176.97825665 -65.5 166.375 C-76.27456141 150.72773246 -77.36645067 132.07329906 -75.03125 113.68359375 C-72.70383531 103.05783738 -67.31609008 92.93021113 -58.5 86.375 C-56.03952806 84.81281828 -53.51891755 83.41427055 -50.9375 82.0625 C-50.33180176 81.73677002 -49.72610352 81.41104004 -49.10205078 81.07543945 C-33.71327199 73.54555215 -16.21827316 75.00035355 0.41656494 75.16900635 C3.81606404 75.20011529 7.21563291 75.2134854 10.61523438 75.22851562 C17.24366744 75.26131806 23.87179547 75.31131216 30.5 75.375 C30.37505147 73.31070688 30.24033444 71.24700368 30.1015625 69.18359375 C30.02760254 68.03431396 29.95364258 66.88503418 29.87744141 65.70092773 C29.15155427 59.30457556 26.96928377 54.40681977 22.25 50 C13.51894353 43.36439708 3.23842315 42.8010862 -7.3984375 43.70703125 C-15.81103772 44.86070597 -22.85393654 47.57792857 -30.27294922 51.68139648 C-33.73003068 53.59128065 -35.44572212 54.375 -39.5 54.375 C-41.76676225 52.51834585 -43.77839548 50.68078437 -45.83203125 48.609375 C-46.42803635 48.01956848 -47.02404144 47.42976196 -47.6381073 46.82208252 C-48.89452527 45.57276645 -50.14582382 44.31828382 -51.39233398 43.05908203 C-53.30718009 41.13035846 -55.24479914 39.22683543 -57.18554688 37.32421875 C-58.40249404 36.10822261 -59.61803834 34.89082054 -60.83203125 33.671875 C-61.41523636 33.1019281 -61.99844147 32.5319812 -62.59931946 31.94476318 C-64.19848633 30.30761719 -64.19848633 30.30761719 -66.5 27.375 C-65.91166027 22.50083409 -62.64980918 20.42029304 -59.0703125 17.390625 C-42.13045992 4.10648529 -21.08353212 -0.19032276 0 0 Z M-29.5 117.375 C-32.19363853 122.1337614 -33.09316755 125.93763083 -32.5 131.375 C-30.64926024 136.51594379 -27.96946878 139.28075238 -23.5 142.375 C-17.33311585 144.69769784 -11.41604261 144.72214643 -4.875 144.6875 C-3.80846191 144.68331055 -2.74192383 144.67912109 -1.64306641 144.67480469 C8.15767474 144.5344742 18.82132532 144.2661183 26.5 137.375 C31.08696732 132.03332142 30.99824325 127.69301983 30.75 121 C30.73195313 120.07316406 30.71390625 119.14632812 30.6953125 118.19140625 C30.64844197 115.91818565 30.58285525 113.64714593 30.5 111.375 C24.09541235 111.32407279 17.69087741 111.28917134 11.28613281 111.26513672 C9.10968067 111.25511146 6.93324188 111.24148778 4.75683594 111.22412109 C1.61910697 111.19971972 -1.51844308 111.18848187 -4.65625 111.1796875 C-5.62115356 111.16936493 -6.58605713 111.15904236 -7.5802002 111.14840698 C-15.71470389 111.14707182 -23.08093307 111.85161683 -29.5 117.375 Z " fill="#01B6F7" transform="translate(1351.5,353.625)"/>
<path d="M0 0 C1.05968994 0.00684814 2.11937988 0.01369629 3.21118164 0.02075195 C11.20184335 0.18437698 17.90992925 1.09112993 25.25 4.4375 C26.46623047 4.98083984 26.46623047 4.98083984 27.70703125 5.53515625 C42.05792083 12.74727282 50.17713237 25.59190207 55.25 40.4375 C58.5566865 52.0660142 59.40406584 63.36836121 59.36352539 75.40478516 C59.36367142 76.55716675 59.36381744 77.70954834 59.3639679 78.89685059 C59.36327599 82.67344095 59.35551761 86.44998085 59.34765625 90.2265625 C59.3457895 92.85785902 59.34436681 95.48915589 59.34336853 98.12045288 C59.34027349 104.31792269 59.33208497 110.51537464 59.32201904 116.71283662 C59.31080086 123.77460035 59.30533314 130.83636499 59.30032361 137.89813542 C59.28990063 152.41126743 59.27157813 166.92438016 59.25 181.4375 C43.41 181.4375 27.57 181.4375 11.25 181.4375 C11.2406543 178.04170654 11.23130859 174.64591309 11.22167969 171.1472168 C11.18785005 159.90342758 11.13246675 148.65981264 11.06609726 137.41617107 C11.02639601 130.6019066 10.99395856 123.78775611 10.97900391 116.97338867 C10.96453983 110.39207184 10.92932694 103.81107254 10.88169098 97.22989845 C10.86690106 94.72425224 10.85896037 92.21855555 10.85811615 89.71286583 C10.85573767 86.19190551 10.8285849 82.67191511 10.79589844 79.15112305 C10.8009288 78.12468689 10.80595917 77.09825073 10.81114197 76.04071045 C10.70324331 68.48440708 9.59264564 60.45734291 4.60589218 54.46030712 C-2.2036838 48.00304248 -9.7745862 46.94200176 -18.81176758 47.01782227 C-25.53886306 47.26306042 -30.55246637 48.51047356 -35.55078125 53.0859375 C-42.88152697 61.09901993 -42.89714846 70.03244418 -42.95532227 80.39990234 C-42.96522186 81.49317841 -42.97512146 82.58645447 -42.98532104 83.71286011 C-43.01683733 87.31636409 -43.04165446 90.91988124 -43.06640625 94.5234375 C-43.0869843 97.0259332 -43.10798099 99.52842549 -43.12937927 102.03091431 C-43.17888086 107.93807415 -43.22416885 113.84525672 -43.26740164 119.75246489 C-43.3217351 127.14100177 -43.38263548 134.5294821 -43.44335938 141.91796875 C-43.55083339 155.09110898 -43.65180554 168.26428733 -43.75 181.4375 C-59.59 181.4375 -75.43 181.4375 -91.75 181.4375 C-91.75 122.3675 -91.75 63.2975 -91.75 2.4375 C-75.91 2.4375 -60.07 2.4375 -43.75 2.4375 C-43.255 12.8325 -43.255 12.8325 -42.75 23.4375 C-40.77 20.7975 -38.79 18.1575 -36.75 15.4375 C-26.65831706 4.20336239 -14.94588597 -0.14788536 0 0 Z " fill="#01B6F7" transform="translate(753.75,353.5625)"/>
<path d="M0 0 C20.73652172 17.9961367 27.20658288 43.43245354 29.9921875 69.67578125 C29.9921875 78.91578125 29.9921875 88.15578125 29.9921875 97.67578125 C-23.4678125 98.17078125 -23.4678125 98.17078125 -78.0078125 98.67578125 C-74.77767381 109.44291023 -72.17826691 116.62799385 -62.3984375 122.45703125 C-49.94518789 128.80574674 -35.39820142 128.21686119 -22.3125 124.03125 C-17.7266241 122.15028199 -13.59513947 119.74691472 -9.43359375 117.06640625 C-7.0078125 115.67578125 -7.0078125 115.67578125 -4.0078125 115.67578125 C-2.01184004 117.31100017 -0.17266707 118.95302212 1.6796875 120.73828125 C2.76238556 121.75718589 3.84571914 122.77541563 4.9296875 123.79296875 C5.71859375 124.53885254 5.71859375 124.53885254 6.5234375 125.29980469 C8.37182309 127.0314372 10.26602471 128.70425907 12.1796875 130.36328125 C16.48395527 134.09666719 20.7385388 137.88491378 24.9921875 141.67578125 C20.36058391 152.660684 4.41103081 159.16960907 -6.04785156 163.52539062 C-25.20570498 170.92231864 -54.62959963 174.96968167 -74.484375 167.72265625 C-79.33409675 165.52438506 -83.68633828 162.76710467 -88.0078125 159.67578125 C-89.66683594 158.60457031 -89.66683594 158.60457031 -91.359375 157.51171875 C-94.0524769 155.68970102 -96.53245301 153.78091306 -99.0078125 151.67578125 C-99.71808594 151.07636719 -100.42835938 150.47695313 -101.16015625 149.859375 C-115.98075934 136.23352302 -121.6656277 116.16197567 -123.0078125 96.67578125 C-123.19903253 91.07128262 -123.25341972 85.47077507 -123.2578125 79.86328125 C-123.25848724 79.08876617 -123.25916199 78.3142511 -123.25985718 77.51626587 C-123.22377096 51.38410806 -119.99123601 25.45951772 -101.0078125 5.67578125 C-74.37126932 -17.94169893 -28.7585035 -22.22247998 0 0 Z M-73.0078125 42.67578125 C-77.58944143 49.21739858 -79.0078125 56.81656328 -79.0078125 64.67578125 C-57.5578125 64.67578125 -36.1078125 64.67578125 -14.0078125 64.67578125 C-15.31630056 51.5909006 -17.55752063 42.301673 -28.0078125 33.67578125 C-43.32306549 24.92097637 -61.86239694 29.70500861 -73.0078125 42.67578125 Z " fill="#01B6F8" transform="translate(331.0078125,367.32421875)"/>
<path d="M0 0 C15.84 0 31.68 0 48 0 C48.029729 5.02637695 48.029729 5.02637695 48.06005859 10.15429688 C48.12701059 21.23441932 48.20464961 32.31444839 48.28752708 43.39446259 C48.33756989 50.11125937 48.38401346 56.82804447 48.421875 63.54492188 C48.45878995 70.02889413 48.50516715 76.51273641 48.55806351 82.99659729 C48.57657439 85.46844703 48.5916945 87.94032459 48.60334396 90.41221619 C48.62026273 93.87846137 48.64931208 97.34441102 48.68115234 100.81054688 C48.68331253 101.82906738 48.68547272 102.84758789 48.68769836 103.89697266 C48.80080944 113.55687322 50.26979674 121.99154949 57.125 129.25 C65.30680879 134.23023143 74.63139459 135.42656761 83.9296875 133.34375 C90.1967156 131.37362735 94.73037596 128.82663772 98 123 C101.00665328 116.36389197 101.44229453 110.77063566 101.43237305 103.53515625 C101.4425647 102.41232742 101.45275635 101.2894986 101.46325684 100.13264465 C101.49331249 96.44254518 101.50264172 92.75270564 101.51171875 89.0625 C101.52857088 86.49559674 101.54672184 83.92870171 101.56611633 81.36181641 C101.60872148 75.30950562 101.63828296 69.2572615 101.66143972 63.20484924 C101.68855426 56.30991529 101.73246167 49.4151196 101.77772844 42.52028465 C101.87040748 28.34692044 101.93994825 14.17353912 102 0 C117.84 0 133.68 0 150 0 C150 59.07 150 118.14 150 179 C134.16 179 118.32 179 102 179 C101.505 168.605 101.505 168.605 101 158 C99.845 159.505625 98.69 161.01125 97.5 162.5625 C89.59727584 172.39916546 80.83835933 179.52556658 68 181 C51.2090102 182.14247972 34.84872234 179.78924889 21.38671875 168.8828125 C5.8690172 154.51893094 1.31727123 135.42036116 0 115 C-0.32781562 106.03283684 -0.2343244 97.05732024 -0.1953125 88.0859375 C-0.19157372 85.53333651 -0.18873085 82.98073406 -0.18673706 80.4281311 C-0.17993796 74.44693986 -0.16425222 68.46581581 -0.14403808 62.48465884 C-0.12149301 55.66213282 -0.11063943 48.83960274 -0.10064721 42.0170486 C-0.07987895 28.01131674 -0.04327878 14.00567946 0 0 Z " fill="#01B6F7" transform="translate(1018,356)"/>
<path d="M0 0 C14.85 0 29.7 0 45 0 C54.60208262 24.57780781 64.17762631 49.16533056 73.70239258 73.77319336 C74.09258072 74.78067627 74.48276886 75.78815918 74.88478088 76.82617188 C75.60989371 78.698466 76.33457275 80.57092821 77.05870056 82.44360352 C79.33196736 88.31219952 81.65130908 94.16118871 84 100 C87.28636423 92.08733916 90.12025553 84.04386472 92.88671875 75.9375 C93.35245363 74.57910306 93.8184269 73.22078783 94.28462219 71.86254883 C95.50810889 68.29608591 96.72863191 64.72861618 97.94842529 61.16088867 C99.15869194 57.62234046 100.37133438 54.08460702 101.58398438 50.546875 C102.06332448 49.14843767 102.54266408 47.75000017 103.02200317 46.3515625 C103.37601889 45.31878174 103.37601889 45.31878174 103.73718643 44.26513672 C104.44572966 42.19768081 105.15391083 40.13010117 105.86203003 38.0625 C110.21186998 25.36472162 114.60230472 12.68130462 119 0 C134.18 0 149.36 0 165 0 C156.81519946 23.38514441 156.81519946 23.38514441 154.1953125 30.80078125 C153.87459274 31.70879486 153.55387299 32.61680847 153.22343445 33.55233765 C144.74851204 57.53293914 136.15736731 81.4692242 127.48535156 105.37916565 C123.35096539 116.78236105 119.23827938 128.19337248 115.12568092 139.60443783 C113.48114391 144.16689223 111.83430905 148.72851291 110.18652344 153.28979492 C109.25830521 155.85980613 108.33025685 158.42987861 107.40234375 161 C107.17429173 161.63162363 106.9462397 162.26324726 106.71127701 162.914011 C103.87390395 170.7749717 101.05459248 178.64212469 98.25869751 186.51794434 C96.72389115 190.83939712 95.18177485 195.15822327 93.63891602 199.47680664 C92.9336089 201.45771342 92.23197351 203.43993224 91.53442383 205.42358398 C79.4433695 239.80092671 79.4433695 239.80092671 61.22265625 248.7734375 C52.63266221 252.04284129 44.57066943 252.25538319 35.4375 252.125 C31.333125 252.08375 27.22875 252.0425 23 252 C23 236.82 23 221.64 23 206 C28.28 205.67 33.56 205.34 39 205 C45.76177132 202.10209801 49.31135292 200.51418117 52.46972656 193.94140625 C52.85612305 192.82636719 53.24251953 191.71132813 53.640625 190.5625 C54.07117187 189.33789062 54.50171875 188.11328125 54.9453125 186.8515625 C55.38023689 185.56771801 55.81513247 184.28386375 56.25 183 C56.69927485 181.71570928 57.14978554 180.43185019 57.6015625 179.1484375 C58.77338909 175.77499732 59.93852311 172.40979038 61 169 C61.27392578 168.22881836 61.54785156 167.45763672 61.83007812 166.66308594 C62.10323641 162.38203629 60.40078985 158.88605041 58.828125 154.953125 C58.47931274 154.05141571 58.13050049 153.14970642 57.77111816 152.22067261 C56.60928047 149.22567721 55.42960747 146.23803638 54.25 143.25 C53.42359605 141.12921406 52.59842214 139.00794845 51.77441406 136.88623047 C50.05156385 132.45570657 48.32167464 128.0280299 46.5859375 123.60253906 C44.15616831 117.40513281 41.74593901 111.20032904 39.34375 104.9921875 C38.57911076 103.01651662 37.81446232 101.04084931 37.04980469 99.06518555 C36.67094116 98.08625336 36.29207764 97.10732117 35.9017334 96.09872437 C34.35169842 92.09660305 32.7980306 88.09589653 31.24432373 84.09519958 C25.39013826 69.02042581 19.56102443 53.9360082 13.7379303 38.84920502 C13.00588346 36.95274186 12.27365936 35.05634724 11.54138184 33.15997314 C10.17298632 29.61593102 8.80514215 26.07167666 7.4375 22.52734375 C7.03210999 21.4774678 6.62671997 20.42759186 6.20904541 19.34590149 C5.46799817 17.4245314 4.72874191 15.50246912 3.99169922 13.57955933 C3.35446472 11.92201623 2.71078932 10.26692709 2.05908203 8.61502075 C0.88354281 5.59618216 0 3.27071508 0 0 Z " fill="#01B6F7" transform="translate(1748,356)"/>
<path d="M0 0 C15.84 0 31.68 0 48 0 C48 16.83 48 33.66 48 51 C55.26 51 62.52 51 70 51 C70 64.53 70 78.06 70 92 C62.74 92 55.48 92 48 92 C48.06291629 102.99644704 48.13832466 113.99261371 48.23571491 124.98881054 C48.2804382 130.09481922 48.31969009 135.20074775 48.34643555 140.30688477 C48.37244887 145.23480383 48.41283747 150.16241478 48.46318626 155.0901432 C48.47986829 156.96995524 48.49137424 158.84982058 48.49761391 160.72969627 C48.50724044 163.36333881 48.53528216 165.99619071 48.56762695 168.62963867 C48.56619186 169.40647507 48.56475677 170.18331146 48.5632782 170.98368835 C48.641362 175.48056281 49.20180914 178.42892331 52 182 C57.39958846 184.69979423 63.97483301 183.62342706 70 184 C70 199.18 70 214.36 70 230 C64.286875 230.061875 58.57375 230.12375 52.6875 230.1875 C50.90819092 230.21481201 49.12888184 230.24212402 47.2956543 230.27026367 C34.52701 230.38484134 21.87857034 229.2701263 12.02734375 220.1796875 C-1.29372354 205.7556019 -0.43083639 187.21331663 -0.29296875 168.7578125 C-0.28736242 166.53580005 -0.28309723 164.31378386 -0.28010559 162.09176636 C-0.26873845 156.28856887 -0.23934254 150.48560235 -0.20599365 144.68249512 C-0.17511607 138.74278893 -0.16156271 132.80304484 -0.14648438 126.86328125 C-0.11446395 115.24207052 -0.06176377 103.62109075 0 92 C-5.94 92 -11.88 92 -18 92 C-18 78.47 -18 64.94 -18 51 C-12.06 51 -6.12 51 0 51 C0 34.17 0 17.34 0 0 Z " fill="#01B7F8" transform="translate(1671,305)"/>
<path d="M0 0 C15.84 0 31.68 0 48 0 C48.01458252 5.81512207 48.02916504 11.63024414 48.04418945 17.62158203 C48.09446643 36.80822623 48.16089822 55.99478915 48.23571491 75.18135262 C48.28069177 86.8171816 48.32010211 98.45297985 48.34643555 110.08886719 C48.36940028 120.23000572 48.40278129 130.37104715 48.44870156 140.51210868 C48.47265427 145.882356 48.49136966 151.25250702 48.49761391 156.62280655 C48.50365544 161.67727536 48.52362176 166.73149769 48.55427551 171.78587532 C48.56307065 173.64100369 48.56677527 175.49616426 48.56500816 177.35131264 C48.56335672 179.88497585 48.58004335 182.41788654 48.60127258 184.95144653 C48.59642501 185.68492251 48.59157743 186.41839848 48.58658296 187.174101 C48.65116288 191.84687394 49.47042966 195.06363421 52 199 C57.04020693 203.34419434 57.04020693 203.34419434 70 203 C70 218.51 70 234.02 70 250 C25.88840149 250.47688215 25.88840149 250.47688215 12.1953125 237.36328125 C-1.07315062 223.07961544 -0.29873881 203.89532636 -0.22705078 185.61401367 C-0.22648566 183.58256536 -0.22680519 181.55111665 -0.22793579 179.51966858 C-0.22850638 174.0412379 -0.21679991 168.56289595 -0.20278788 163.08448577 C-0.19023126 157.34566057 -0.18910614 151.60683303 -0.18673706 145.86799622 C-0.18053673 135.0169573 -0.16414558 124.16595898 -0.14403808 113.31493789 C-0.12163392 100.9545387 -0.11067431 88.59413751 -0.10064721 76.23372304 C-0.079778 50.82245438 -0.04311994 25.41124133 0 0 Z " fill="#01B7F8" transform="translate(1199,285)"/>
<path d="M0 0 C2.1796875 1.68359375 2.1796875 1.68359375 4.1796875 4.68359375 C-3.10843395 15.51287645 -10.54620652 26.17393723 -18.45703125 36.55859375 C-19.96906267 38.55797413 -21.42982162 40.59785742 -22.8203125 42.68359375 C-25.75774565 42.06621289 -27.96222733 41.07640527 -30.5703125 39.62109375 C-37.96341135 36.29725427 -47.13751945 36.32504275 -54.86328125 38.56640625 C-62.45532798 42.0350872 -66.97004472 46.96671396 -69.95025635 54.71089172 C-72.01697094 60.60646635 -72.39747838 65.91612991 -72.36621094 72.12182617 C-72.37654861 73.2060788 -72.38688629 74.29033142 -72.39753723 75.40744019 C-72.426772 78.95146937 -72.42846035 82.49492266 -72.4296875 86.0390625 C-72.44468213 88.51199927 -72.46141196 90.98492608 -72.47979736 93.45783997 C-72.52333849 99.93666058 -72.54344077 106.4153461 -72.55853271 112.89428711 C-72.58160655 120.68391661 -72.63402101 128.47340495 -72.68147278 136.26291656 C-72.75013517 148.06984743 -72.78170783 159.87635412 -72.8203125 171.68359375 C-89.9803125 171.68359375 -107.1403125 171.68359375 -124.8203125 171.68359375 C-124.8203125 112.61359375 -124.8203125 53.54359375 -124.8203125 -7.31640625 C-107.6603125 -7.31640625 -90.5003125 -7.31640625 -72.8203125 -7.31640625 C-72.4903125 -0.71640625 -72.1603125 5.88359375 -71.8203125 12.68359375 C-70.180625 10.45609375 -70.180625 10.45609375 -68.5078125 8.18359375 C-50.85023873 -13.76402435 -22.63240866 -14.72746592 0 0 Z " fill="#01B5F5" transform="translate(1580.8203125,363.31640625)"/>
<path d="M0 0 C15.84 0 31.68 0 48 0 C48 59.07 48 118.14 48 179 C32.16 179 16.32 179 0 179 C0 119.93 0 60.86 0 0 Z " fill="#01B6F7" transform="translate(1590,356)"/>
<path d="M0 0 C15.84 0 31.68 0 48 0 C48 59.07 48 118.14 48 179 C32.16 179 16.32 179 0 179 C0 119.93 0 60.86 0 0 Z " fill="#01B6F7" transform="translate(586,356)"/>
<path d="M0 0 C2.08387195 2.87430614 2.48004923 4.95158298 2.21875 8.4921875 C0.80243593 15.49204743 -5.83924363 20.30110895 -11.1875 24.5 C-16.34375 27.5 -16.34375 27.5 -19.1875 27.5 C-19.17589844 28.758125 -19.16429687 30.01625 -19.15234375 31.3125 C-19.08467861 42.09240198 -19.34677683 52.75075374 -20.1875 63.5 C-19.31738281 63.44779297 -19.31738281 63.44779297 -18.4296875 63.39453125 C-13.20983682 63.21364534 -9.63983101 63.46431976 -5.1875 66.5 C-0.92328558 70.83355124 0.9536468 73.85823058 0.9375 79.9375 C0.94136719 81.38962891 0.94136719 81.38962891 0.9453125 82.87109375 C0.8125 85.5 0.8125 85.5 -0.1875 88.5 C3.85004825 89.21751496 7.88854335 89.92941346 11.92797852 90.63623047 C13.30064286 90.87721902 14.67304384 91.11971294 16.04516602 91.36376953 C18.02289235 91.71526968 20.00167245 92.06082421 21.98046875 92.40625 C23.16922607 92.61572266 24.3579834 92.82519531 25.58276367 93.04101562 C28.41695191 93.44378786 30.96309964 93.76265868 33.8125 93.5 C35.16933751 91.8524116 36.49706721 90.18083079 37.8125 88.5 C44.7209081 82.46252369 52.16430037 80.25957769 61.296875 80.58984375 C67.54383014 81.54842825 71.66651866 84.86625615 75.8125 89.5 C79.61056971 95.25836375 80.39452948 101.32110354 79.1875 108 C77.00404382 116.36033878 71.91650306 122.67030008 64.8125 127.5 C58.51058842 130.60688648 52.08813139 131.66071588 45.265625 129.80859375 C38.66289534 127.47419673 35.08394573 124.95055626 31.8515625 118.6171875 C29.41659509 112.92070411 28.82183555 107.47199334 30.8125 101.5 C30.09416992 101.3860791 29.37583984 101.2721582 28.63574219 101.15478516 C21.0644143 99.9271013 13.56469392 98.46805846 6.0625 96.875 C4.97195313 96.64554687 3.88140625 96.41609375 2.7578125 96.1796875 C0.10889595 95.62202086 -2.5395216 95.06210119 -5.1875 94.5 C-5.6825 95.985 -5.6825 95.985 -6.1875 97.5 C-13.1474938 103.42339898 -20.99153755 106.1940349 -30.1875 105.5 C-31.26 105.19964844 -32.3325 104.89929688 -33.4375 104.58984375 C-37.46603189 104.49332684 -37.87053306 104.60284774 -40.73828125 107.05078125 C-42.01237336 108.28417132 -43.26515799 109.53981505 -44.5 110.8125 C-45.17353516 111.47515869 -45.84707031 112.13781738 -46.54101562 112.82055664 C-48.77579701 115.02850225 -50.98084913 117.26396443 -53.1875 119.5 C-54.86674557 121.17102526 -56.54777151 122.84026308 -58.23046875 124.5078125 C-62.57074512 128.81762782 -66.88690866 133.15060656 -71.1875 137.5 C-70.86523438 138.38042969 -70.54296875 139.26085937 -70.2109375 140.16796875 C-67.97076569 147.46135256 -68.38485281 154.55679076 -71.86328125 161.3671875 C-75.90017472 167.86908671 -80.65839535 173.28309696 -88.1875 175.5 C-93.86990081 176.34076338 -98.35361027 175.79583391 -103.1875 172.5 C-108.03008852 167.54735265 -109.93750527 163.54993575 -110.5 156.6875 C-110.25302825 148.07641817 -106.53951569 140.77583352 -100.4375 134.8125 C-94.05118426 130.26839072 -89.27800856 129.03566446 -81.484375 130.078125 C-79.1875 130.5 -79.1875 130.5 -77.39477539 131.34448242 C-74.92257743 131.76576807 -74.92257743 131.76576807 -72.54956055 129.44555664 C-71.54472667 128.44671874 -70.5537974 127.43377431 -69.57421875 126.41015625 C-69.04157913 125.87281357 -68.50893951 125.33547089 -67.9601593 124.78184509 C-66.2531077 123.05341418 -64.56438215 121.30818686 -62.875 119.5625 C-61.74914856 118.42013715 -60.62220646 117.2788481 -59.49414062 116.13867188 C-53.86514544 110.42469434 -48.35197463 104.64276206 -43.1875 98.5 C-43.5175 97.88125 -43.8475 97.2625 -44.1875 96.625 C-46.23847783 90.21569429 -45.97060035 84.45968462 -43.1875 78.3125 C-38.74358976 70.34107908 -33.92579461 66.9966556 -25.1875 64.5 C-25.1875 52.95 -25.1875 41.4 -25.1875 29.5 C-28.4875 29.5 -31.7875 29.5 -35.1875 29.5 C-38.3125 28 -38.3125 28 -40.1875 25.5 C-40.853499 20.91200687 -40.74258793 18.65844438 -38.75 14.5 C-29.67138672 3.87137958 -14.52186353 -6.83381813 0 0 Z " fill="#01B0EF" transform="translate(812.1875,84.5)"/>
<path d="M0 0 C5.78355032 4.70653909 9.11050293 10.17221239 10.66015625 17.45703125 C11.08852591 23.0258368 10.50631449 27.64118072 7.66015625 32.45703125 C3.71350587 36.89060602 0.53377698 39.42517896 -5.33984375 40.45703125 C-5.25214722 41.01191223 -5.16445068 41.56679321 -5.07409668 42.13848877 C-4.1620945 47.9128777 -3.25436709 53.68792704 -2.34912109 59.46337891 C-2.01070017 61.61882492 -1.67118899 63.77410004 -1.33056641 65.92919922 C-0.84120668 69.0265752 -0.35576869 72.12454419 0.12890625 75.22265625 C0.28202271 76.18633118 0.43513916 77.1500061 0.59289551 78.1428833 C0.73304077 79.04351501 0.87318604 79.94414673 1.01757812 80.87207031 C1.14193237 81.66260803 1.26628662 82.45314575 1.39440918 83.26763916 C1.66015625 85.45703125 1.66015625 85.45703125 1.66015625 89.45703125 C2.21703125 89.4828125 2.77390625 89.50859375 3.34765625 89.53515625 C10.94583345 90.09988564 16.74880711 92.0438838 21.97265625 97.76953125 C27.2802008 104.61004508 28.5649856 110.95897183 27.66015625 119.45703125 C26.02067721 126.47827845 22.68339853 131.29476836 16.59765625 135.20703125 C9.53941574 139.48803701 1.21277622 139.46420995 -6.81640625 138.0078125 C-8.71484375 137.45703125 -8.71484375 137.45703125 -11.33984375 136.45703125 C-11.82453125 136.95332031 -12.30921875 137.44960938 -12.80859375 137.9609375 C-16.91127362 142.11884575 -21.07102914 146.14106121 -25.54296875 149.90234375 C-27.52186774 151.55747344 -27.52186774 151.55747344 -29.77734375 154.08203125 C-32.33984375 155.45703125 -32.33984375 155.45703125 -34.64453125 155.02734375 C-36.93864379 154.27693311 -39.13501766 153.43695396 -41.33984375 152.45703125 C-39.80066365 148.7895112 -37.58498923 146.47122552 -34.76953125 143.69140625 C-33.87363281 142.80195313 -32.97773437 141.9125 -32.0546875 140.99609375 C-31.11753906 140.07570313 -30.18039062 139.1553125 -29.21484375 138.20703125 C-28.25995738 137.26218269 -27.30552516 136.31687492 -26.3515625 135.37109375 C-24.01875288 133.06184787 -21.68140289 130.75739922 -19.33984375 128.45703125 C-19.55060547 127.87042725 -19.76136719 127.28382324 -19.97851562 126.67944336 C-22.8560281 118.42013623 -24.02116419 111.37352271 -20.27734375 103.14453125 C-17.77276017 98.67612646 -14.7471349 95.12901313 -10.33984375 92.45703125 C-9.01246665 92.10071831 -7.6794059 91.76437818 -6.33984375 91.45703125 C-7.34972415 84.53980246 -8.43782554 77.63817473 -9.58081055 70.74169922 C-9.96021369 68.39526663 -10.32171733 66.04586602 -10.66479492 63.69384766 C-11.16178508 60.30859385 -11.72264316 56.93930606 -12.296875 53.56640625 C-12.43696487 52.51523621 -12.57705475 51.46406616 -12.72138977 50.38104248 C-13.27352521 47.36197663 -13.78486538 45.10780867 -15.33984375 42.45703125 C-18.85872765 40.36622856 -22.40581231 39.47152141 -26.33984375 38.45703125 C-32.24444254 34.67427348 -37.59788197 29.41326528 -39.33984375 22.45703125 C-40.04277719 15.79551083 -40.56204435 8.99866954 -36.33984375 3.45703125 C-25.92829164 -7.56420635 -12.57600536 -8.29302524 0 0 Z " fill="#01B1F1" transform="translate(1118.33984375,160.54296875)"/>
<path d="M0 0 C0.75297363 0.00088623 1.50594727 0.00177246 2.28173828 0.00268555 C8.78930294 0.14182058 13.09510555 1.39829796 18.1953125 5.69921875 C19.625 7.375 19.625 7.375 20.31445312 9.88085938 C21.41671307 12.65820965 21.41671307 12.65820965 24.45068359 13.40161133 C26.21919678 13.67654419 26.21919678 13.67654419 28.0234375 13.95703125 C29.30734375 14.16650391 30.59125 14.37597656 31.9140625 14.59179688 C33.2760086 14.79059127 34.63798815 14.98915662 36 15.1875 C37.35448867 15.40359015 38.70866195 15.62166726 40.0625 15.84179688 C47.31050988 16.99519126 47.31050988 16.99519126 54.625 17.375 C56.00062854 16.08534824 57.33266393 14.74810707 58.625 13.375 C64.95242415 9.69503366 72.10116508 9.89350587 79.06640625 11.5234375 C84.99127284 13.49537783 90.80611317 16.42839524 94.25 21.8125 C95.78680832 25.79423064 96.31535819 28.15614442 95.625 32.375 C92.76298561 37.02577338 89.99370587 39.26883411 84.7890625 40.90625 C80.31605933 41.87513155 75.73586765 42.41334924 71.52856445 40.34375 C68.70714879 38.95855086 66.78928068 38.43359779 63.625 38.375 C57.98043335 40.87314906 53.16900875 44.39069716 48.1875 48 C46.81522436 48.95480966 45.44088843 49.90666542 44.06445312 50.85546875 C36.93507876 55.62500456 36.93507876 55.62500456 30.625 61.375 C31.140625 62.179375 31.65625 62.98375 32.1875 63.8125 C34.0374712 68.39721123 33.86023282 71.63852104 32.625 76.375 C29.61225942 82.40048116 25.01704876 86.01340296 18.8515625 88.48828125 C11.10141795 90.61816359 2.35252006 90.68338399 -5 87.25 C-10.01235002 84.31431413 -13.50102345 80.99692964 -15.375 75.375 C-15.95349644 69.47433633 -14.97096599 65.06209024 -11.375 60.375 C-7.96580771 57.57740348 -4.31438469 55.34469235 -0.375 53.375 C-0.4471875 52.21484375 -0.519375 51.0546875 -0.59375 49.859375 C-1.12519598 41.02088844 -1.53133712 32.23410342 -1.375 23.375 C-3.0765625 23.49875 -3.0765625 23.49875 -4.8125 23.625 C-10.73966142 23.625 -15.99449907 21.46695537 -20.4375 17.5625 C-21.90016486 14.14961533 -22.00877919 12.0509193 -21.375 8.375 C-15.83880018 1.39111574 -8.47555329 -0.01780972 0 0 Z M5.625 23.375 C5.76466726 27.08359231 5.91283164 30.7917989 6.0625 34.5 C6.10181641 35.54671875 6.14113281 36.5934375 6.18164062 37.671875 C6.38631096 42.64693842 6.61776207 47.48270149 7.625 52.375 C8.81996094 52.55675781 8.81996094 52.55675781 10.0390625 52.7421875 C11.09867188 52.90976562 12.15828125 53.07734375 13.25 53.25 C14.29414062 53.41242187 15.33828125 53.57484375 16.4140625 53.7421875 C19.625 54.375 19.625 54.375 22.45703125 55.83984375 C26.27202358 56.48429991 26.81805836 55.95247594 29.91015625 53.82421875 C31.51804178 52.59017038 33.10982616 51.33494509 34.6875 50.0625 C36.37122419 48.76020253 38.05612585 47.45942603 39.7421875 46.16015625 C40.9792041 45.19360107 40.9792041 45.19360107 42.24121094 44.20751953 C45.51997995 41.68699104 48.89434795 39.32628967 52.3125 37 C53.34761719 36.29101562 54.38273437 35.58203125 55.44921875 34.8515625 C56.16722656 34.36429688 56.88523437 33.87703125 57.625 33.375 C56.57700265 29.92088629 55.94746582 28.04498807 53.625 25.375 C49.23101939 23.47749457 44.70120197 22.74032064 40 21.9375 C38.14955078 21.57495117 38.14955078 21.57495117 36.26171875 21.20507812 C32.72397922 20.53023833 29.18103704 19.9441527 25.625 19.375 C24.70879883 19.19179199 23.79259766 19.00858398 22.84863281 18.81982422 C15.92627504 17.6624883 11.51270496 19.7546878 5.625 23.375 Z " fill="#01AEEC" transform="translate(996.375,0.625)"/>
<path d="M0 0 C2.97361086 2.21563162 4.36959793 3.73919585 6 7 C6.06996014 8.70702735 6.08440154 10.41668003 6.0625 12.125 C6.05347656 13.03507813 6.04445313 13.94515625 6.03515625 14.8828125 C6.02355469 15.58148437 6.01195312 16.28015625 6 17 C9.17274119 17.87974522 12.36190007 18.66586689 15.5625 19.4375 C16.45775391 19.68693359 17.35300781 19.93636719 18.27539062 20.19335938 C20.99814209 20.82168664 23.21011376 21.21897363 26 21 C28.88858506 19.09195951 30.83122222 16.66712292 33 14 C37.95100853 10.23292829 42.80684157 8.09001517 49.10546875 8.53125 C51 9 51 9 53.1875 10.875 C54.71924307 16.76631949 53.34972875 21.53349061 50.4609375 26.8125 C44.93278113 35.00236129 37.49075407 41.79512872 28 45 C21.88073394 45.63302752 21.88073394 45.63302752 19 43.5625 C17.47530457 39.65546795 18.15638655 36.04622004 19 32 C19.33 31.34 19.66 30.68 20 30 C18.79601563 29.79503906 17.59203125 29.59007812 16.3515625 29.37890625 C14.77601308 29.10693641 13.20049379 28.83479193 11.625 28.5625 C10.8309375 28.42779297 10.036875 28.29308594 9.21875 28.15429688 C3.2265625 27.11328125 3.2265625 27.11328125 1 26 C0.74992187 26.58523438 0.49984375 27.17046875 0.2421875 27.7734375 C-1.16476141 30.29532706 -2.68712804 31.75086062 -4.875 33.625 C-5.55304688 34.21539063 -6.23109375 34.80578125 -6.9296875 35.4140625 C-9 37 -9 37 -11.15625 37.77734375 C-13.33899044 38.9469066 -13.33899044 38.9469066 -13.9765625 42.08984375 C-14.19054688 43.35957031 -14.40453125 44.62929688 -14.625 45.9375 C-14.74270752 46.60467041 -14.86041504 47.27184082 -14.98168945 47.95922852 C-15.22013925 49.31792096 -15.45136628 50.67790112 -15.67529297 52.0390625 C-16.14006243 54.84585069 -16.66673069 57.64064103 -17.1875 60.4375 C-17.45974384 61.95808147 -17.73118248 63.47880907 -18 65 C-17.07767578 64.94779297 -17.07767578 64.94779297 -16.13671875 64.89453125 C-15.32847656 64.86746094 -14.52023437 64.84039063 -13.6875 64.8125 C-12.48673828 64.76029297 -12.48673828 64.76029297 -11.26171875 64.70703125 C-9 65 -9 65 -7.2109375 66.3125 C-6 68 -6 68 -5.9375 71.1875 C-8.32921633 79.76954096 -13.8484914 84.10727016 -21.33984375 88.5234375 C-22.21769531 89.01070312 -23.09554688 89.49796875 -24 90 C-24.62003906 90.36351562 -25.24007813 90.72703125 -25.87890625 91.1015625 C-30.79455087 93.63637684 -36.61321007 93.87492448 -42 93 C-43.8125 91.66796875 -43.8125 91.66796875 -45 90 C-45.34721894 85.74656793 -44.67086921 83.91036532 -42.12890625 80.4609375 C-38.17843166 75.94420601 -34.31298424 71.85086959 -29 69 C-28.34 69 -27.68 69 -27 69 C-26.94465088 68.43603516 -26.88930176 67.87207031 -26.83227539 67.29101562 C-26.576765 64.69390274 -26.319642 62.09695183 -26.0625 59.5 C-25.97548828 58.613125 -25.88847656 57.72625 -25.79882812 56.8125 C-25.27446908 51.53006818 -24.68264462 46.26435854 -24 41 C-25.11375 40.4225 -26.2275 39.845 -27.375 39.25 C-30.48787336 37.63591752 -31.78225986 36.31462926 -33 33 C-34.21879687 24.96877012 -32.5542979 18.64949548 -28 12 C-20.48068143 2.71708859 -12.20273177 -2.08638661 0 0 Z " fill="#01AEEC" transform="translate(1225,555)"/>
<path d="M0 0 C4.23687284 2.93987095 6.06658863 5.9595786 7 11 C7.11714735 20.54750932 4.83796879 27.09935025 -1.6875 34 C-2.28949219 34.5775 -2.89148438 35.155 -3.51171875 35.75 C-6.84284188 40.78602868 -6.16876814 48.40875137 -6.28125 54.33203125 C-6.319003 55.88736997 -6.35676363 57.44270851 -6.39453125 58.99804688 C-6.44833585 61.41851337 -6.50056599 63.83900874 -6.55224609 66.25952148 C-6.6039678 68.61712969 -6.6611635 70.97456016 -6.71875 73.33203125 C-6.73232544 74.05703323 -6.74590088 74.78203522 -6.7598877 75.52900696 C-6.83607878 78.60389111 -7.0203576 81.06107281 -8 84 C-7.278125 84.04125 -6.55625 84.0825 -5.8125 84.125 C-1.91091528 85.33882636 -0.05885149 87.61810649 2 91 C5.85929966 99.33362715 5.87439301 106.90795276 3.04296875 115.53515625 C0.8062503 120.82118375 -2.1941054 124.77045474 -6.9375 128 C-11.96882582 129.6428819 -15.38783554 129.7902767 -20.1875 127.4375 C-24.71513519 123.5135495 -27.66556762 118.55265873 -28.23828125 112.46875 C-28.45874877 103.65004904 -26.88214441 96.46267522 -22.0625 89 C-20 87 -20 87 -17.421875 85.85546875 C-14.64618516 84.14707876 -14.64618516 84.14707876 -14.29296875 80.61328125 C-14.23170243 79.18056584 -14.19859796 77.74648181 -14.1875 76.3125 C-14.16308838 75.54244629 -14.13867676 74.77239258 -14.11352539 73.97900391 C-14.04211649 71.31882605 -14.01638428 68.66108032 -14 66 C-13.99162109 64.94570801 -13.98324219 63.89141602 -13.97460938 62.80517578 C-13.9298967 55.86962985 -13.94260222 48.93541801 -14 42 C-15.25941406 41.88527344 -16.51882813 41.77054688 -17.81640625 41.65234375 C-21.37649417 41.32803687 -21.98524523 41.01224332 -24.9375 38.5625 C-29.37936737 33.04381629 -28.651151 26.83708553 -28 20 C-26.78979573 16.3161382 -25.12694941 13.23049708 -23 10 C-22.401875 9.071875 -21.80375 8.14375 -21.1875 7.1875 C-14.97135458 0.97135458 -8.9011684 -1.73000765 0 0 Z " fill="#01B0EF" transform="translate(676,198)"/>
<path d="M0 0 C7.41543253 4.01199693 13.48856741 9.69409184 16 17.9375 C16.56104208 21.39902375 16.70336976 24.49157926 16 27.9375 C13.625 31.0625 13.625 31.0625 11 32.9375 C10.34 32.9375 9.68 32.9375 9 32.9375 C10.35848375 36.73172796 11.72797367 40.52178036 13.10766602 44.30834961 C13.57520852 45.59631829 14.03975985 46.88537697 14.5012207 48.17553711 C15.16605791 50.03264427 15.84265834 51.88552692 16.51953125 53.73828125 C17.12438354 55.41144409 17.12438354 55.41144409 17.74145508 57.1184082 C19.69041872 61.48401114 22.15644095 63.09734536 26.1875 65.4375 C33.30971412 70.10818528 39.0138487 77.73201603 41.6015625 85.8984375 C42.62489697 91.13550215 42.8441483 96.00801816 40.6875 100.9375 C38.65078978 103.35137877 36.97786086 104.78812871 33.80078125 105.2734375 C25.5267133 105.40332868 19.67302492 103.01200579 13.44140625 97.4765625 C6.43278611 89.9931036 2.38748201 81.48121059 2.703125 71.20703125 C3.24073265 67.09716222 5.15478993 64.78271007 8 61.9375 C9.32 61.9375 10.64 61.9375 12 61.9375 C10.49279409 57.9021644 8.94761261 53.88409688 7.36743164 49.87695312 C6.83655722 48.51538985 6.31579207 47.14983565 5.8059082 45.78027344 C2.51957388 36.97816587 -0.37582675 31.44205789 -9 26.9375 C-13.88152523 22.58549615 -17.84606447 17.49283588 -19 10.9375 C-19.08927995 7.02193634 -19.16165035 3.38126544 -16.6328125 0.23828125 C-11.53342323 -3.82415087 -5.4639636 -2.53654322 0 0 Z " fill="#01AEEC" transform="translate(1207,78.0625)"/>
<path d="M0 0 C15.84 0 31.68 0 48 0 C48 15.84 48 31.68 48 48 C32.16 48 16.32 48 0 48 C0 32.16 0 16.32 0 0 Z " fill="#01B3F3" transform="translate(1590,285)"/>
<path d="M0 0 C15.84 0 31.68 0 48 0 C48 15.84 48 31.68 48 48 C32.16 48 16.32 48 0 48 C0 32.16 0 16.32 0 0 Z " fill="#01B3F3" transform="translate(586,285)"/>
<path d="M0 0 C4.6469639 4.30976924 7.02188853 9.33387092 7.72265625 15.59765625 C7.82591275 23.45662344 6.61229096 30.44367743 1.11328125 36.31640625 C-4.75944119 41.61744774 -10.59518528 44.23042814 -18.46484375 44.84765625 C-26.52083447 44.31939456 -32.68594728 42.18424259 -38.5859375 36.5703125 C-43.7038297 30.6014082 -45.60796375 23.95990003 -45.484375 16.21875 C-44.86891766 8.42682789 -41.02634436 2.75232678 -35.27734375 -2.40234375 C-23.64439236 -10.06199106 -10.63521422 -8.60543178 0 0 Z " fill="#01B3F4" transform="translate(1055.27734375,225.40234375)"/>
<path d="M0 0 C6.00408802 4.32799462 9.20981665 9.87123418 11 17 C12.00018469 24.51275092 10.80378485 30.85131022 6.55859375 37.1328125 C1.44309074 43.56576524 -4.42019857 46.62220849 -12.5 47.875 C-20.37227875 48.40801887 -26.59956346 46.35925803 -32.98828125 41.765625 C-38.23944449 37.15683706 -41.28889835 30.93324109 -42 24 C-42.09868326 16.27803456 -40.44964778 9.88670722 -35.2734375 4.0546875 C-25.26372399 -5.47647397 -12.0002696 -6.79679135 0 0 Z " fill="#01B4F4" transform="translate(891,263)"/>
<path d="M0 0 C5.04994281 4.6208627 8.53076087 9.85795092 9.31640625 16.79296875 C9.64464589 25.14719702 8.06164503 31.25798941 2.75 37.75 C-5.26577685 44.30836288 -11.60234597 46.82569606 -22 46 C-29.59420926 44.54526511 -35.0039567 41.11861142 -39.54296875 34.87890625 C-43.65108898 27.87093645 -44.00827155 20.96154043 -43 13 C-41.28424822 6.73245966 -37.02089717 1.98500681 -32 -2 C-21.15687687 -7.80881596 -9.86993337 -7.21192871 0 0 Z " fill="#01B4F4" transform="translate(966,195)"/>
<path d="M0 0 C5.32672424 3.1373503 8.64778442 8.81835326 10.5625 14.5625 C11.27971145 25.41721949 10.84728687 32.8608281 3.875 41.3125 C-1.72594664 47.19806825 -6.25142382 49.72312749 -14.4375 50.0625 C-21.67938693 49.78853202 -26.10224695 47.84585854 -31.25 42.8125 C-36.03753814 35.69958619 -37.48962827 29.1349542 -36.4375 20.5625 C-34.31206621 11.99750789 -29.44277369 4.66642041 -21.8125 0.0625 C-15.1803948 -2.82775596 -6.66643319 -2.77661421 0 0 Z " fill="#01B4F5" transform="translate(806.4375,234.4375)"/>
<path d="M0 0 C4.86110068 3.26539154 8.93787049 7.63001772 10.796875 13.20703125 C11.5826572 19.73804072 10.62599024 24.81663985 6.796875 30.20703125 C1.51758951 36.41879924 -5.79139024 39.3923615 -13.74609375 40.58984375 C-21.5467524 40.96189424 -29.47029227 38.59922262 -35.703125 33.83203125 C-39.7935583 29.53707628 -41.73417791 25.31253726 -42.2578125 19.34765625 C-42.10825323 13.49347929 -40.04823423 8.71784359 -36.140625 4.39453125 C-26.52439197 -4.20210119 -11.47895227 -6.10628476 0 0 Z " fill="#01B2F2" transform="translate(1016.203125,587.79296875)"/>
<path d="M0 0 C5.10067425 4.192335 10.21557986 9.37426924 11.046875 16.140625 C11.14703716 23.87314398 10.3829186 29.23008496 5.203125 35.12109375 C-0.32704232 40.38118313 -6.67943212 42.4770399 -14.2265625 42.84375 C-21.5407854 42.57117026 -27.82376641 40.11638003 -33.2265625 35.15625 C-37.80859289 30.08791921 -39.95846766 24.387072 -39.6328125 17.48046875 C-38.52316237 10.78473902 -35.51431495 5.70125185 -30.11328125 1.625 C-21.68276006 -4.00738247 -8.98979117 -5.4959422 0 0 Z " fill="#01B4F4" transform="translate(1034.2890625,129.59375)"/>
<path d="M0 0 C5.39355032 4.37161447 9.26415321 10.15430046 11.2265625 16.8046875 C12.02160103 24.46061407 12.08942579 31.51419462 7.2265625 37.8046875 C2.61038431 42.61370865 -1.3766008 43.97052584 -7.9609375 44.1171875 C-13.93125982 44.07070001 -17.87054458 43.15929845 -22.7734375 39.8046875 C-23.6396875 39.2684375 -24.5059375 38.7321875 -25.3984375 38.1796875 C-31.60417391 31.97395109 -34.90708043 24.82470251 -35.0859375 16.1171875 C-35.02308897 8.50465901 -33.76297945 3.87502788 -28.4609375 -1.5703125 C-19.00003137 -7.29086039 -8.94575404 -5.93543681 0 0 Z " fill="#01B4F4" transform="translate(1193.7734375,191.1953125)"/>
<path d="M0 0 C4.37172646 4.46653498 6.12240838 9.29941006 6.24609375 15.53125 C5.1801808 21.81714788 2.63224644 26.99533216 -2.54296875 30.87109375 C-10.14769367 35.93601672 -17.69080873 37.51474547 -26.75390625 36.53125 C-33.92631246 34.81028472 -38.72834068 31.73279695 -42.75390625 25.53125 C-45.43895287 20.97592952 -45.36821572 16.69455995 -44.75390625 11.53125 C-42.91910649 5.29073347 -39.0819545 1.11313117 -33.75390625 -2.46875 C-22.73304085 -8.07585696 -9.75542495 -8.16935364 0 0 Z " fill="#01B3F2" transform="translate(956.75390625,110.46875)"/>
<path d="M0 0 C4.9149281 4.82870129 8.13600564 8.29234752 8.25 15.3125 C8.16690308 21.6860338 6.80454084 24.23647145 2.25 28.6875 C-4.25693473 33.31743433 -11.23318084 33.82581253 -19 33 C-28.00207566 30.95463043 -34.7189477 26.71651269 -40 19.125 C-41.83332135 13.39587077 -41.69586916 8.89782499 -39.625 3.25 C-36.22328225 -1.97406654 -29.93743592 -4.32061977 -24.078125 -5.67578125 C-16.05645475 -6.52070337 -6.55888298 -4.93710229 0 0 Z " fill="#01B2F2" transform="translate(1101,83)"/>
<path d="M0 0 C6.95219685 4.17805691 13.01497892 9.44583508 15.8671875 17.19140625 C17.13183277 22.38452408 16.98481306 26.68590449 15.35546875 31.765625 C12.83897537 35.25624485 10.49647218 37.20788725 6.41796875 38.453125 C-2.91917725 39.64613714 -11.16671745 38.41371846 -18.8359375 32.8046875 C-24.69977263 27.85876394 -30.00324527 22.6847489 -30.8828125 14.734375 C-30.92378399 5.01047469 -30.92378399 5.01047469 -27.58203125 1.453125 C-19.73588081 -4.85790905 -8.85818722 -4.10395623 0 0 Z " fill="#01B2F1" transform="translate(1167.58203125,108.546875)"/>
<path d="M0 0 C7.69704114 2.99696113 13.00244448 9.32919704 16.375 16.6875 C18.96858729 23.8471086 19.49767895 31.5387499 16.25 38.5625 C13.86601816 42.62285069 11.47644932 44.50785023 7 46 C0.64064554 46.53892834 -3.74810105 45.73632089 -9 42 C-15.22566164 36.38295701 -19.50920229 29.95817232 -20.34375 21.52734375 C-20.54596428 13.51460288 -19.89933454 8.33423472 -14.5 2.125 C-10.16442863 -1.19678105 -5.17762037 -0.90589944 0 0 Z " fill="#01B2F1" transform="translate(1251,223)"/>
<path d="M0 0 C4.05649257 3.60577118 5.77661704 5.7214938 6.3125 11.1875 C5.77376628 17.76005139 3.17008771 22.20205123 -1.5625 26.75 C-8.17579486 32.11179936 -16.06236105 34.77996263 -24.578125 34.38671875 C-30.04495282 33.51378979 -34.39829314 31.44153618 -38.5 27.75 C-40.82908992 23.48000181 -41.54297011 19.60433451 -40.55859375 14.8828125 C-39.00387124 10.17422432 -36.80457824 7.26106707 -33 4 C-32.236875 3.29875 -31.47375 2.5975 -30.6875 1.875 C-21.71756427 -4.3830947 -9.56100683 -5.68492298 0 0 Z " fill="#01B1F0" transform="translate(878,92)"/>
<path d="M0 0 C2.54183058 2.95105954 3.82085282 5.05876201 4 9 C3.1338804 13.92159724 1.2771467 17.18143618 -2.625 20.3125 C-11.27309662 26.0622309 -19.72459557 26.89028775 -30 26 C-34.11046162 25.15393586 -37.03154723 23.25228269 -39.9375 20.25 C-42.41103056 16.35231548 -42.72895995 14.53575079 -42 10 C-38.77391828 3.1270433 -32.49620798 -0.54874386 -25.6875 -3.375 C-16.67833722 -4.90197674 -8.00615097 -4.9221877 0 0 Z " fill="#01B1F0" transform="translate(947,44)"/>
<path d="M0 0 C3.37337906 2.77807688 3.99088641 4.61003446 4.5 8.9375 C3.78386361 16.21821994 0.17891176 23.42875286 -4.875 28.75 C-11.324298 33.84835215 -17.37840704 37.24493186 -25.71875 37.078125 C-28.9552512 36.58561395 -30.67255669 35.09009602 -32.875 32.75 C-34.97828214 28.54343572 -34.55748338 23.01946279 -33.2265625 18.59375 C-29.11982231 9.74846344 -22.69592911 3.73309396 -13.875 -0.25 C-9.01576124 -1.86974625 -4.66540052 -2.02843501 0 0 Z " fill="#01B1F1" transform="translate(741.875,138.25)"/>
<path d="M0 0 C6.09812745 3.60779268 10.8846137 8.24999701 14.375 14.4375 C15.25828878 18.05898401 15.02551471 20.41069852 14 24 C11.86722816 26.8640079 11.17347758 27.72155805 8 29 C-1.68996798 30.36545902 -10.26258932 29.05051387 -18.28515625 23.38671875 C-22.97820551 19.54540257 -26.3167618 15.96559906 -27.37890625 9.80078125 C-27.6341948 6.51462018 -27.79341074 4.05538599 -25.7578125 1.34765625 C-18.06998565 -5.2501056 -8.68644423 -3.68725057 0 0 Z " fill="#01B0EE" transform="translate(1150,41)"/>
<path d="M0 0 C7.19766075 4.3485867 10.41012924 12.23038771 13 20 C13.14880933 22.78445155 13.23107 25.52742385 13.25 28.3125 C13.270625 29.05951172 13.29125 29.80652344 13.3125 30.57617188 C13.3467609 35.45406715 12.72603121 38.78993778 10 43 C6.84321776 45.10452149 4.89067443 45.55418741 1.12109375 45.4296875 C-2.98086739 44.59871931 -5.40828427 42.16695019 -8 39 C-13.9273662 30.01486553 -15.83251048 20.07288046 -14.54296875 9.453125 C-13.58127884 5.10822384 -11.6239468 2.24502588 -8.125 -0.4375 C-5.00424867 -1.26358123 -3.0970859 -0.92912577 0 0 Z " fill="#01AFEE" transform="translate(1314,251)"/>
<path d="M0 0 C6.57243983 1.42265692 11.16084116 7.12121456 14.8671875 12.3828125 C18.89593372 18.77859656 21.33033147 24.3312472 21.43359375 31.97265625 C21.459375 33.11734375 21.48515625 34.26203125 21.51171875 35.44140625 C21.18359375 38.47265625 21.18359375 38.47265625 19.87109375 40.3515625 C16.94895789 42.29288887 14.59031247 41.87010677 11.18359375 41.47265625 C1.51909145 37.33072669 -3.91452763 28.95325389 -7.81640625 19.47265625 C-8.89575173 16.1184877 -9.01414443 12.92476368 -9.06640625 9.41015625 C-9.0921875 8.36730469 -9.11796875 7.32445312 -9.14453125 6.25 C-8.81640625 3.47265625 -8.81640625 3.47265625 -7.53125 1.63671875 C-5.12509291 0.00338205 -2.85775001 -0.12060229 0 0 Z " fill="#01AEEC" transform="translate(1280.81640625,175.52734375)"/>
<path d="M0 0 C1.4375 1.875 1.4375 1.875 2 5.1875 C1.14701942 10.77926159 -1.37242946 13.26001993 -5.734375 16.4765625 C-14.41729535 22.09004285 -24.16225692 25.22048599 -34.5625 23.875 C-39.87221338 22.01194268 -39.87221338 22.01194268 -41.625 19.125 C-41.50221677 14.70480371 -40.03508886 11.39176652 -37 8.265625 C-27.08341453 0.24971842 -12.34416057 -5.41938757 0 0 Z " fill="#01AEEC" transform="translate(879.5625,38.125)"/>
<path d="M0 0 C0.66 0.66 1.32 1.32 2 2 C1.7009226 9.77601237 -1.75740332 14.0017331 -7.25 19.125 C-12.8760226 23.98046175 -18.95895792 27.63919267 -26.5 28.3125 C-30 28 -30 28 -32 26.375 C-33.44705917 22.93823448 -33.21173711 21.56789261 -32 18 C-26.56663405 8.94989502 -18.21715104 2.29848782 -8.04296875 -0.63671875 C-5.11573363 -1.15724048 -2.82080713 -0.89440226 0 0 Z " fill="#01ACEA" transform="translate(756,83)"/>
<path d="M0 0 C-0.20406483 3.57113449 -0.91172289 4.90475365 -3.375 7.5625 C-10.69657648 13.18220882 -20.47641308 15.13479213 -29.5 15.1875 C-30.6034375 15.20167969 -31.706875 15.21585938 -32.84375 15.23046875 C-36.02080339 14.99848094 -38.18682114 14.47260265 -41 13 C-42.125 10.6875 -42.125 10.6875 -42 8 C-37.70704452 1.39545311 -28.80400414 -0.8008726 -21.49609375 -2.625 C-14.11239705 -3.73428777 -6.3488411 -4.35349104 0 0 Z " fill="#01AAE6" transform="translate(944,5)"/>
<path d="M0 0 C1 1 1 1 1.3125 3.25 C0.8954842 6.91973906 -0.53901923 8.27668118 -3 11 C-11.09634316 17.1602611 -18.87449146 21.3543145 -29.1171875 21.30078125 C-31 21 -31 21 -33 19 C-32.90930232 15.64418571 -32.13531938 14.1649205 -30 11.5625 C-21.47891645 4.28407447 -11.62256189 -2.64149134 0 0 Z " fill="#01A9E5" transform="translate(818,38)"/>
<path d="M0 0 C0.66 0.33 1.32 0.66 2 1 C1.36191406 1.60328125 0.72382812 2.2065625 0.06640625 2.828125 C-0.75988281 3.62734375 -1.58617187 4.4265625 -2.4375 5.25 C-3.26121094 6.03890625 -4.08492187 6.8278125 -4.93359375 7.640625 C-6.91885207 9.90734717 -7.6300359 11.0671937 -8 14 C-8.66 13.34 -9.32 12.68 -10 12 C-9.85677318 9.03582747 -9.00676414 8.00700709 -6.93359375 5.859375 C-6.10988281 5.16328125 -5.28617188 4.4671875 -4.4375 3.75 C-3.61121094 3.04359375 -2.78492188 2.3371875 -1.93359375 1.609375 C-1.29550781 1.07828125 -0.65742187 0.5471875 0 0 Z " fill="#016F96" transform="translate(1295,369)"/>
<path d="M0 0 C0.66 0.33 1.32 0.66 2 1 C-1.96 4.96 -5.92 8.92 -10 13 C-10 9.28115772 -9.1259934 8.63852271 -6.6875 5.9375 C-5.76517578 4.89916016 -5.76517578 4.89916016 -4.82421875 3.83984375 C-3 2 -3 2 0 0 Z " fill="#01739C" transform="translate(722,141)"/>
<path d="M0 0 C0.66 0.33 1.32 0.66 2 1 C-1.63 4.63 -5.26 8.26 -9 12 C-9.33 11.34 -9.66 10.68 -10 10 C-8.90033225 8.70450101 -7.79508199 7.41373929 -6.6875 6.125 C-6.07261719 5.40570313 -5.45773437 4.68640625 -4.82421875 3.9453125 C-3 2 -3 2 0 0 Z " fill="#01759F" transform="translate(780,151)"/>
<path d="M0 0 C0.66 0.33 1.32 0.66 2 1 C-1.96 4.96 -5.92 8.92 -10 13 C-10 8.41771462 -7.08388033 6.1816619 -4 3 C-1.625 1.0625 -1.625 1.0625 0 0 Z " fill="#016C93" transform="translate(736,88)"/>
<path d="M0 0 C0.66 0.33 1.32 0.66 2 1 C-1.63 4.63 -5.26 8.26 -9 12 C-9.66 11.67 -10.32 11.34 -11 11 C-7.6189962 6.86378916 -4.33409466 3.18683431 0 0 Z " fill="#016F96" transform="translate(1523,361)"/>
<path d="M0 0 C0.66 0.33 1.32 0.66 2 1 C-1.63 4.63 -5.26 8.26 -9 12 C-9 8.47601214 -8.44884893 7.98495633 -6.1875 5.4375 C-5.40439453 4.53837891 -5.40439453 4.53837891 -4.60546875 3.62109375 C-3 2 -3 2 0 0 Z " fill="#017199" transform="translate(862,262)"/>
<path d="M0 0 C0.66 0.33 1.32 0.66 2 1 C-1.63 4.63 -5.26 8.26 -9 12 C-9 8.47601214 -8.44884893 7.98495633 -6.1875 5.4375 C-5.40439453 4.53837891 -5.40439453 4.53837891 -4.60546875 3.62109375 C-3 2 -3 2 0 0 Z " fill="#01729A" transform="translate(784,235)"/>
<path d="M0 0 C0.66 0.33 1.32 0.66 2 1 C-1.63 4.63 -5.26 8.26 -9 12 C-9 8.47601214 -8.44884893 7.98495633 -6.1875 5.4375 C-5.40439453 4.53837891 -5.40439453 4.53837891 -4.60546875 3.62109375 C-3 2 -3 2 0 0 Z " fill="#0178A3" transform="translate(1023,221)"/>
<path d="M0 0 C0.66 0.33 1.32 0.66 2 1 C-1.3 4.3 -4.6 7.6 -8 11 C-8 7.45459812 -7.40614728 6.93992636 -5.125 4.375 C-4.59132813 3.76398438 -4.05765625 3.15296875 -3.5078125 2.5234375 C-2 1 -2 1 0 0 Z " fill="#0177A2" transform="translate(1006,130)"/>
<path d="M0 0 C0.66 0.33 1.32 0.66 2 1 C-1.3 4.3 -4.6 7.6 -8 11 C-8 6.67750434 -5.85084926 5.11604454 -3 2 C-2.01 1.34 -1.02 0.68 0 0 Z " fill="#01729B" transform="translate(1108,253)"/>
<path d="M0 0 C-1.38188453 3.21043882 -2.92421903 5.04936365 -5.625 7.25 C-6.57246094 8.03117187 -6.57246094 8.03117187 -7.5390625 8.828125 C-8.02117188 9.21484375 -8.50328125 9.6015625 -9 10 C-7.6834994 5.81113445 -4.97532335 0 0 0 Z " fill="#0178A3" transform="translate(923,109)"/>
<path d="M0 0 C0.66 0.33 1.32 0.66 2 1 C-1.3 4.3 -4.6 7.6 -8 11 C-8.66 10.67 -9.32 10.34 -10 10 C-7.02911382 6.00073014 -3.87051275 3.07881696 0 0 Z " fill="#0178A3" transform="translate(236,368)"/>
<path d="M0 0 C0.99 0.33 1.98 0.66 3 1 C0.36 3.64 -2.28 6.28 -5 9 C-5.33 8.01 -5.66 7.02 -6 6 C-4.02 4.02 -2.04 2.04 0 0 Z " fill="#0180AD" transform="translate(713,218)"/>
<path d="M0 0 C0.66 0.33 1.32 0.66 2 1 C-1.3 4.3 -4.6 7.6 -8 11 C-8 7.0234755 -6.61988497 5.9109833 -4 3 C-1.75 1.1875 -1.75 1.1875 0 0 Z " fill="#016E96" transform="translate(661,200)"/>
<path d="M0 0 C0.66 0.33 1.32 0.66 2 1 C-0.97 3.97 -3.94 6.94 -7 10 C-7.33 9.34 -7.66 8.68 -8 8 C-3.375 2.25 -3.375 2.25 0 0 Z " fill="#0178A3" transform="translate(914,44)"/>
<path d="M0 0 C0.66 0.33 1.32 0.66 2 1 C-0.64 3.64 -3.28 6.28 -6 9 C-6.33 8.34 -6.66 7.68 -7 7 C-4.78071806 4.09197539 -3.07030857 2.04687238 0 0 Z " fill="#017199" transform="translate(990,57)"/>
<path d="M0 0 C0.66 0.33 1.32 0.66 2 1 C-0.64 3.64 -3.28 6.28 -6 9 C-6 6 -6 6 -3.5625 3.375 C-2.716875 2.59125 -1.87125 1.8075 -1 1 C-0.67 0.67 -0.34 0.34 0 0 Z " fill="#016B92" transform="translate(659,283)"/>
<path d="M0 0 C0.66 0.33 1.32 0.66 2 1 C-0.64 3.64 -3.28 6.28 -6 9 C-6 6 -6 6 -3.5625 3.375 C-2.716875 2.59125 -1.87125 1.8075 -1 1 C-0.67 0.67 -0.34 0.34 0 0 Z " fill="#016488" transform="translate(1168,188)"/>
<path d="M0 0 C0.66 0.33 1.32 0.66 2 1 C-0.64 3.64 -3.28 6.28 -6 9 C-6.33 8.34 -6.66 7.68 -7 7 C-4.66666667 4.66666667 -2.33333333 2.33333333 0 0 Z " fill="#01739C" transform="translate(793,45)"/>
<path d="M0 0 C0.66 0.33 1.32 0.66 2 1 C-0.31 3.31 -2.62 5.62 -5 8 C-5.66 7.67 -6.32 7.34 -7 7 C-4.66666667 4.66666667 -2.33333333 2.33333333 0 0 Z " fill="#01749D" transform="translate(847,43)"/>
<path d="M0 0 C0.66 0.33 1.32 0.66 2 1 C1.21625 1.763125 0.4325 2.52625 -0.375 3.3125 C-3.07257717 5.90891805 -3.07257717 5.90891805 -5 9 C-4.50769231 3.46153846 -4.50769231 3.46153846 -1.9375 1.125 C-1.298125 0.75375 -0.65875 0.3825 0 0 Z " fill="#016387" transform="translate(907,8)"/>
</svg>
