<?xml version="1.0" encoding="UTF-8" standalone="no"?>
<!-- Created with Inkscape (http://www.inkscape.org/) -->

<svg
   width="64pt"
   height="64pt"
   viewBox="0 0 22.577778 22.577778"
   version="1.1"
   id="svg831"
   inkscape:version="1.1.1 (3bf5ae0d25, 2021-09-20)"
   sodipodi:docname="Export - Unblash - 64px.svg"
   inkscape:export-filename="C:\Users\User\Desktop\CARLOS PROJECT\3. MARET 1\EXPORT\EXPAND\13 - Picture File.png"
   inkscape:export-xdpi="576"
   inkscape:export-ydpi="576"
   xmlns:inkscape="http://www.inkscape.org/namespaces/inkscape"
   xmlns:sodipodi="http://sodipodi.sourceforge.net/DTD/sodipodi-0.dtd"
   xmlns="http://www.w3.org/2000/svg"
   xmlns:svg="http://www.w3.org/2000/svg"
   xmlns:rdf="http://www.w3.org/1999/02/22-rdf-syntax-ns#"
   xmlns:cc="http://creativecommons.org/ns#"
   xmlns:dc="http://purl.org/dc/elements/1.1/">
  <defs
     id="defs825">
    <pattern
       id="EMFhbasepattern"
       patternUnits="userSpaceOnUse"
       width="6"
       height="6"
       x="0"
       y="0" />
    <pattern
       id="EMFhbasepattern-9"
       patternUnits="userSpaceOnUse"
       width="6"
       height="6"
       x="0"
       y="0" />
    <pattern
       id="EMFhbasepattern-0"
       patternUnits="userSpaceOnUse"
       width="6"
       height="6"
       x="0"
       y="0" />
    <pattern
       id="EMFhbasepattern-7"
       patternUnits="userSpaceOnUse"
       width="6"
       height="6"
       x="0"
       y="0" />
    <pattern
       id="EMFhbasepattern-2"
       patternUnits="userSpaceOnUse"
       width="6"
       height="6"
       x="0"
       y="0" />
    <pattern
       id="EMFhbasepattern-98"
       patternUnits="userSpaceOnUse"
       width="6"
       height="6"
       x="0"
       y="0" />
    <pattern
       id="EMFhbasepattern-6"
       patternUnits="userSpaceOnUse"
       width="6"
       height="6"
       x="0"
       y="0" />
    <pattern
       id="EMFhbasepattern-01"
       patternUnits="userSpaceOnUse"
       width="6"
       height="6"
       x="0"
       y="0" />
    <pattern
       id="EMFhbasepattern-07"
       patternUnits="userSpaceOnUse"
       width="6"
       height="6"
       x="0"
       y="0" />
    <pattern
       id="EMFhbasepattern-8"
       patternUnits="userSpaceOnUse"
       width="6"
       height="6"
       x="0"
       y="0" />
    <pattern
       id="EMFhbasepattern-4"
       patternUnits="userSpaceOnUse"
       width="6"
       height="6"
       x="0"
       y="0" />
    <pattern
       id="EMFhbasepattern-40"
       patternUnits="userSpaceOnUse"
       width="6"
       height="6"
       x="0"
       y="0" />
    <pattern
       id="EMFhbasepattern-08"
       patternUnits="userSpaceOnUse"
       width="6"
       height="6"
       x="0"
       y="0" />
    <pattern
       id="EMFhbasepattern-04"
       patternUnits="userSpaceOnUse"
       width="6"
       height="6"
       x="0"
       y="0" />
    <pattern
       id="EMFhbasepattern-014"
       patternUnits="userSpaceOnUse"
       width="6"
       height="6"
       x="0"
       y="0" />
    <pattern
       id="EMFhbasepattern-27"
       patternUnits="userSpaceOnUse"
       width="6"
       height="6"
       x="0"
       y="0" />
    <pattern
       id="EMFhbasepattern-09"
       patternUnits="userSpaceOnUse"
       width="6"
       height="6"
       x="0"
       y="0" />
    <pattern
       id="EMFhbasepattern-5"
       patternUnits="userSpaceOnUse"
       width="6"
       height="6"
       x="0"
       y="0" />
    <pattern
       id="EMFhbasepattern-018"
       patternUnits="userSpaceOnUse"
       width="6"
       height="6"
       x="0"
       y="0" />
  </defs>
  <sodipodi:namedview
     id="base"
     pagecolor="#ffffff"
     bordercolor="#666666"
     borderopacity="1.0"
     inkscape:pageopacity="0.0"
     inkscape:pageshadow="2"
     inkscape:zoom="9.1757813"
     inkscape:cx="40.160068"
     inkscape:cy="42.666667"
     inkscape:document-units="pt"
     inkscape:current-layer="layer1"
     showgrid="false"
     units="pt"
     inkscape:window-width="1920"
     inkscape:window-height="1001"
     inkscape:window-x="-9"
     inkscape:window-y="41"
     inkscape:window-maximized="1"
     inkscape:pagecheckerboard="true"
     inkscape:showpageshadow="false"
     inkscape:object-paths="true"
     inkscape:snap-intersection-paths="true"
     inkscape:snap-smooth-nodes="true"
     inkscape:snap-midpoints="true"
     showguides="true"
     inkscape:snap-bbox="true"
     inkscape:bbox-nodes="true"
     inkscape:snap-nodes="false"
     inkscape:snap-global="true">
    <inkscape:grid
       type="xygrid"
       id="grid1378" />
    <sodipodi:guide
       position="0.97013831,21.607643"
       orientation="78.000048,0"
       id="guide1380"
       inkscape:locked="false" />
    <sodipodi:guide
       position="0.97013831,0.97013129"
       orientation="0,78.000005"
       id="guide1382"
       inkscape:locked="false" />
    <sodipodi:guide
       position="21.607639,0.97013129"
       orientation="-78.000048,0"
       id="guide1384"
       inkscape:locked="false" />
    <sodipodi:guide
       position="21.607639,21.607643"
       orientation="0,-78.000005"
       id="guide1386"
       inkscape:locked="false" />
  </sodipodi:namedview>
  <metadata
     id="metadata828">
    <rdf:RDF>
      <cc:Work
         rdf:about="">
        <dc:format>image/svg+xml</dc:format>
        <dc:type
           rdf:resource="http://purl.org/dc/dcmitype/StillImage" />
      </cc:Work>
    </rdf:RDF>
  </metadata>
  <g
     inkscape:label="Icon"
     inkscape:groupmode="layer"
     id="layer1"
     transform="translate(0,-274.42223)">
    <path
       id="rect42798"
       style="color:#000000;display:inline;fill:#000000;stroke-width:1;stroke-linecap:round;stroke-linejoin:round;-inkscape-stroke:none"
       d="m 2.0166092,277.31329 c -0.5880539,0 -1.04646747,0.50894 -1.04647088,1.10054 v 9.98644 c 3.41e-6,0.59161 0.45841698,1.10056 1.04647088,1.10056 h 1.093386 v 1.2022 c -5e-7,0.5916 0.459066,1.10316 1.0471227,1.10316 h 1.0933862 v 1.20155 c 3.7e-6,0.59161 0.4584171,1.10121 1.0464706,1.10121 H 20.561169 c 0.588053,0 1.046466,-0.5096 1.04647,-1.10121 v -9.98383 c -4e-6,-0.5916 -0.458417,-1.10316 -1.04647,-1.10316 h -1.093387 v -1.20154 c 0,-0.59162 -0.458416,-1.10122 -1.046472,-1.10122 h -1.093385 v -1.20416 c -1e-6,-0.5916 -0.459069,-1.10054 -1.047122,-1.10054 z m 0,0.66723 H 16.280803 c 0.199714,0 0.37923,0.17655 0.37923,0.43331 v 1.20416 H 4.1571179 c -0.5880567,0 -1.0471232,0.5096 -1.0471227,1.10122 v 8.11437 h -1.093386 c -0.1997146,0 -0.3792303,-0.17655 -0.3792318,-0.43331 v -9.98644 c 1.5e-6,-0.25676 0.1795172,-0.43331 0.3792318,-0.43331 z m 2.1405087,2.30276 H 18.42131 c 0.199716,0 0.379232,0.17915 0.379232,0.43593 v 9.98382 c 0,0.25676 -0.179516,0.43591 -0.379232,0.43591 H 4.1571179 c -0.1997158,0 -0.379232,-0.17915 -0.3792318,-0.43591 v -1.53713 -8.44669 c -2e-7,-0.25678 0.179516,-0.43593 0.3792318,-0.43593 z m 1.2315254,0.86924 c -0.4979819,0 -0.9239835,0.39664 -0.9239699,0.8966 v 7.32399 c -2e-6,0.49994 0.4259955,0.8966 0.9239699,0.8966 H 17.189786 c 0.497974,0 0.92332,-0.39666 0.923318,-0.8966 3.67e-4,-2.44085 0,-4.88161 0,-7.32399 1.4e-5,-0.49996 -0.425337,-0.8966 -0.923318,-0.8966 z m 11.8011427,0.66723 c 0.153733,0 0.256082,0.10718 0.256078,0.22937 v 5.42327 l -2.268221,-2.74129 c -0.29038,-0.351 -0.875066,-0.36466 -1.159851,0.0101 l -2.002369,3.03907 c -0.04979,0.0656 -0.08728,0.0628 -0.138139,0.008 l -2.9993179,-4.58531 c -0.3068823,-0.35431 -0.875266,-0.36571 -1.1943845,-0.0222 v -0.001 c -0.00793,0.0101 -0.015333,0.0195 -0.022156,0.03 L 5.1319113,286.624 v -4.57424 c -3.2e-6,-0.12219 0.1029987,-0.22937 0.2567307,-0.22937 z m 2.277996,0.76825 h 1.093387 c 0.199715,0 0.379229,0.17915 0.37923,0.43591 v 9.98383 c -1e-6,0.25678 -0.179515,0.43397 -0.37923,0.43397 H 6.2969747 c -0.1997146,0 -0.3792297,-0.17719 -0.3792313,-0.43397 v -1.20155 H 18.42131 c 0.588056,0 1.046472,-0.51156 1.046472,-1.10316 z m -7.794449,0.101 c -0.604486,0 -1.101202,0.49671 -1.101205,1.1012 -7e-6,0.60449 0.496713,1.10316 1.101205,1.10316 0.604492,0 1.10056,-0.49867 1.100554,-1.10316 -4e-6,-0.60449 -0.496068,-1.1012 -1.100554,-1.1012 z m -0.0059,0.67356 c 0.249841,-0.006 0.439269,0.18375 0.439271,0.42764 2e-6,0.24388 -0.189428,0.43592 -0.433314,0.43592 -0.243889,0 -0.435925,-0.19204 -0.435922,-0.43592 1e-6,-0.23627 0.180125,-0.42197 0.429965,-0.42764 z m -0.297039,4.86048 c 0.308638,0.35606 0.8927,0.33562 1.177442,-0.0391 l 2.001719,-3.03908 c 0.04375,-0.0576 0.05966,-0.0528 0.113383,0.0126 l 2.782986,3.36357 v 0.8523 c 3e-6,0.12218 -0.102349,0.2287 -0.256078,0.2287 H 5.3886433 c -0.1537299,0 -0.2567313,-0.10642 -0.2567307,-0.2287 v -1.63161 l 3.0442791,-4.10639 c 0.033102,-0.0348 0.064781,-0.0526 0.096437,-0.0521 v 10e-6 c 0.031657,3.4e-4 0.063417,0.0184 0.095785,0.0541 z"
       sodipodi:nodetypes="sccscsscsssccscsscsssssscsscsccsccccccscscsccssccsscccccccccccccccsccssscsscsssssscssscccccssssccscccc" />
  </g>
</svg>
